<svg width="72" height="72" viewBox="0 0 72 72" fill="none" xmlns="http://www.w3.org/2000/svg">
<g clip-path="url(#clip0_3076_38)">
<mask id="mask0_3076_38" style="mask-type:luminance" maskUnits="userSpaceOnUse" x="0" y="0" width="72" height="72">
<path d="M72 0H0V72H72V0Z" fill="white"/>
</mask>
<g mask="url(#mask0_3076_38)">
<path d="M67.5 0.5H4.5C2.29086 0.5 0.5 2.29086 0.5 4.5V67.5C0.5 69.7091 2.29086 71.5 4.5 71.5H67.5C69.7091 71.5 71.5 69.7091 71.5 67.5V4.5C71.5 2.29086 69.7091 0.5 67.5 0.5Z" fill="#33C26A" fill-opacity="0.15"/>
<path d="M52.7975 36.5225C52.6803 36.281 52.6194 36.016 52.6194 35.7475C52.6194 35.479 52.6803 35.214 52.7975 34.9725L54.1225 31.9725C54.3948 31.3761 54.5357 30.7282 54.5357 30.0726C54.5357 29.417 54.3948 28.769 54.1225 28.1726C53.8647 27.5908 53.4896 27.0685 53.0207 26.6383C52.5519 26.2081 51.9993 25.8794 51.3975 25.6726L48.3225 24.5225C48.0742 24.4232 47.8487 24.2744 47.6596 24.0854C47.4706 23.8963 47.3218 23.6708 47.2225 23.4225L46.0475 20.3225C45.8151 19.7176 45.4621 19.1662 45.0098 18.7021C44.5575 18.2379 44.0155 17.8707 43.4167 17.6228C42.818 17.3749 42.175 17.2514 41.527 17.2599C40.879 17.2685 40.2395 17.4089 39.6475 17.6725L36.6475 19.0475C36.1503 19.2477 35.5948 19.2477 35.0975 19.0475L32.0975 17.6725C31.5042 17.4049 30.8625 17.2613 30.2117 17.2506C29.5609 17.24 28.9147 17.3626 28.313 17.6107C27.7113 17.8589 27.1667 18.2275 26.7126 18.6938C26.2585 19.1601 25.9046 19.7144 25.6725 20.3225L24.5225 23.4225C24.4232 23.6708 24.2744 23.8963 24.0854 24.0854C23.8963 24.2744 23.6708 24.4232 23.4225 24.5225L20.3225 25.6726C19.7144 25.9046 19.1601 26.2585 18.6938 26.7126C18.2275 27.1667 17.8589 27.7114 17.6107 28.3131C17.3626 28.9148 17.24 29.5608 17.2506 30.2116C17.2613 30.8624 17.4049 31.5043 17.6725 32.0976L19.0475 35.0975C19.2477 35.5947 19.2477 36.1502 19.0475 36.6475L17.6725 39.6475C17.4071 40.2413 17.2699 40.8845 17.2699 41.535C17.2699 42.1855 17.4071 42.8287 17.6725 43.4225C17.9224 44.0051 18.2918 44.5287 18.7569 44.9594C19.222 45.39 19.7725 45.7182 20.3725 45.9225L23.4725 47.0976C23.7208 47.1969 23.9463 47.3455 24.1354 47.5346C24.3245 47.7237 24.4732 47.9493 24.5725 48.1976L25.7225 51.2725C26.0653 52.1777 26.6736 52.9579 27.4678 53.5112C28.2619 54.0644 29.2047 54.3647 30.1725 54.3725C30.8539 54.3757 31.5277 54.2307 32.1475 53.9476L35.1475 52.5726C35.3911 52.4617 35.6549 52.4021 35.9225 52.3976C36.1927 52.4044 36.4578 52.4727 36.6975 52.5975L39.6975 53.9225C40.2897 54.1943 40.9335 54.335 41.585 54.335C42.2366 54.335 42.8803 54.1943 43.4725 53.9225C44.0774 53.6791 44.624 53.3103 45.0764 52.8407C45.5288 52.3711 45.8768 51.8111 46.0975 51.1975L47.2725 48.1225C47.3719 47.8743 47.5205 47.6488 47.7096 47.4597C47.8987 47.2706 48.1243 47.1219 48.3725 47.0225L51.4475 45.8476C52.0492 45.6408 52.6018 45.3119 53.0707 44.8817C53.5396 44.4515 53.9147 43.9293 54.1725 43.3476C54.4442 42.7555 54.585 42.1116 54.585 41.4601C54.585 40.8086 54.4442 40.1647 54.1725 39.5726L52.7975 36.5225Z" fill="#33C26A"/>
</g>
</g>
<g clip-path="url(#clip1_3076_38)">
<path d="M34.666 35.9998C34.666 36.3535 34.8065 36.6926 35.0565 36.9426C35.3066 37.1927 35.6457 37.3332 35.9993 37.3332C36.353 37.3332 36.6921 37.1927 36.9422 36.9426C37.1922 36.6926 37.3327 36.3535 37.3327 35.9998C37.3327 35.6462 37.1922 35.3071 36.9422 35.057C36.6921 34.807 36.353 34.6665 35.9993 34.6665C35.6457 34.6665 35.3066 34.807 35.0565 35.057C34.8065 35.3071 34.666 35.6462 34.666 35.9998Z" stroke="white" stroke-width="1.5" stroke-linecap="round" stroke-linejoin="round"/>
<path d="M42 36C40.4 38.6667 38.4 40 36 40C33.6 40 31.6 38.6667 30 36C31.6 33.3333 33.6 32 36 32C38.4 32 40.4 33.3333 42 36Z" stroke="white" stroke-width="1.5" stroke-linecap="round" stroke-linejoin="round"/>
</g>
<defs>
<clipPath id="clip0_3076_38">
<rect width="72" height="72" fill="white"/>
</clipPath>
<clipPath id="clip1_3076_38">
<rect width="16" height="16" fill="white" transform="translate(28 28)"/>
</clipPath>
</defs>
</svg>
