<svg width="134" height="47" viewBox="0 0 134 47" fill="none" xmlns="http://www.w3.org/2000/svg">
<g clip-path="url(#clip0_496_912)">
<path d="M47.0062 23.4954C47.0062 36.4752 36.4844 46.9969 23.5046 46.9969C19.3739 46.9969 15.4904 45.9271 12.1141 44.0627C9.72712 42.7301 7.5968 41.0079 5.80968 38.9611C2.18598 34.8303 0 29.4164 0 23.4954C0 21.6 0.228801 19.7542 0.649299 17.9887C1.50576 14.433 3.16302 11.1927 5.42938 8.47181C9.74568 3.29288 16.2356 0 23.5015 0C36.4844 0 47.0062 10.5156 47.0062 23.4954Z" fill="#E83434"/>
<path d="M8.76256 18.8297C8.27714 20.0757 7.92775 21.3588 7.74533 22.5554L6.61369 28.6743C4.45245 26.0462 2.33759 22.5709 0.649414 17.9887C1.50587 14.433 3.16313 11.1927 5.42949 8.4718C6.20556 12.3738 7.33101 15.8522 8.76256 18.8297Z" fill="white"/>
<path d="M32.8082 33.8687C28.5259 37.7366 21.7732 38.4694 15.5894 35.7269C15.339 35.6125 15.0762 35.4919 14.8072 35.3559L16.1676 27.9322C16.9158 28.4238 17.6857 28.8598 18.4834 29.2154C22.0886 30.817 25.836 30.5696 28.0312 28.5815C30.4182 26.4234 31.1942 23.4582 30.1121 20.6508C29.2865 18.4926 27.1408 16.1923 23.6005 16.1923C23.6005 16.1923 23.5944 16.1923 23.5851 16.1923C17.2436 16.1923 15.9543 23.0872 15.8337 23.8725L15.812 23.9715L15.2122 27.2427L13.8147 34.8303L12.111 44.0627C9.72408 42.7301 7.59376 41.0079 5.80664 38.961L7.51028 29.7132L8.79342 22.7316C8.94183 21.7762 9.20773 20.7714 9.55712 19.7758C9.6004 19.649 9.64369 19.5192 9.69316 19.3831C9.75809 19.2131 9.82921 19.0399 9.89414 18.8699C9.94361 18.7555 9.98689 18.6411 10.0364 18.5205C10.1137 18.3504 10.1848 18.1773 10.2713 18.0072C10.327 17.8866 10.3857 17.7568 10.4507 17.6362C10.5218 17.4723 10.5991 17.3146 10.6857 17.16C10.7722 16.99 10.8712 16.8168 10.9639 16.6468C11.0289 16.5386 11.0845 16.4272 11.1494 16.319C13.388 12.5438 17.3116 9.06543 23.5882 9.06543H23.616C29.4999 9.07161 34.6572 12.6118 36.7659 18.0907C38.9055 23.6747 37.3873 29.7162 32.8082 33.8687Z" fill="white"/>
<path d="M67.0604 9.84766C65.9968 9.80437 65.0012 10.1723 64.1014 10.9391C63.2079 11.7028 62.6575 12.6335 62.4689 13.7064C62.2834 14.7545 62.4905 15.6759 63.0842 16.4396C63.6809 17.2095 64.5065 17.6176 65.5361 17.6547C65.5793 17.6547 65.6195 17.6578 65.6628 17.6578C66.5378 17.6547 67.3912 17.3733 68.0962 16.8539L68.0436 17.16C68.0158 17.3177 68.1209 17.4661 68.2786 17.4939C68.294 17.497 68.3126 17.497 68.328 17.497H69.2494C69.3886 17.497 69.5092 17.395 69.5339 17.2589L70.143 13.7991C70.3594 12.7571 70.1646 11.8388 69.5586 11.0659C68.9464 10.2929 68.1085 9.88167 67.0604 9.84766ZM67.6169 15.4595C67.0325 15.9758 66.4142 16.2108 65.7308 16.183C65.1619 16.1768 64.6301 15.8985 64.2993 15.4316C63.9437 14.9493 63.8355 14.3989 63.9654 13.7435C64.0921 13.0694 64.4539 12.4603 64.9888 12.0274C65.4897 11.5729 66.1452 11.3225 66.8223 11.3194C67.4376 11.3194 67.9106 11.5389 68.2693 11.9873C68.6311 12.4449 68.7578 12.9828 68.6589 13.6352C68.5445 14.3495 68.1765 14.9988 67.6169 15.4595Z" fill="#070808"/>
<path d="M87.1114 9.84766C86.0478 9.80437 85.0522 10.1723 84.1524 10.9391C83.2589 11.7028 82.7085 12.6335 82.5199 13.7064C82.3344 14.7545 82.5416 15.6759 83.1352 16.4396C83.7319 17.2095 84.5575 17.6176 85.5871 17.6547C85.6304 17.6547 85.6706 17.6578 85.7138 17.6578C86.5889 17.6547 87.4422 17.3733 88.1472 16.8539L88.0946 17.16C88.0668 17.3177 88.1719 17.4661 88.3296 17.4939C88.3451 17.497 88.3636 17.497 88.3791 17.497H89.3005C89.4396 17.497 89.5602 17.395 89.5849 17.2589L90.194 13.7991C90.4104 12.7571 90.2157 11.8388 89.6096 11.0659C88.9974 10.2929 88.1564 9.88167 87.1114 9.84766ZM87.6679 15.4595C87.0836 15.9758 86.4652 16.2108 85.7819 16.183C85.213 16.1768 84.6812 15.8985 84.3503 15.4316C83.9947 14.9493 83.8865 14.3989 84.0164 13.7435C84.1432 13.0694 84.5049 12.4603 85.0398 12.0274C85.5407 11.5729 86.1962 11.3225 86.8733 11.3194C87.4886 11.3194 87.9617 11.5389 88.3203 11.9873C88.6821 12.4449 88.8088 12.9828 88.7099 13.6352C88.5955 14.3495 88.2245 14.9988 87.6679 15.4595Z" fill="#070808"/>
<path d="M97.8525 11.069C97.2557 10.293 96.424 9.88483 95.382 9.84772C94.3277 9.81371 93.3321 10.1847 92.4354 10.9515C91.5419 11.7152 90.9915 12.6459 90.8029 13.7188C90.6174 14.7669 90.8246 15.6852 91.4151 16.452C92.0119 17.225 92.8405 17.6269 93.8825 17.6548C93.9288 17.6548 93.9721 17.6579 94.0185 17.6579C95.0265 17.6579 95.9726 17.2868 96.8383 16.551C97.7381 15.7873 98.2884 14.8628 98.4739 13.8084C98.6563 12.7603 98.4492 11.8389 97.8525 11.069ZM94.0649 16.183C93.496 16.1861 92.958 15.9109 92.6302 15.4441C92.2778 14.9586 92.1726 14.4083 92.3025 13.7497C92.4293 13.0695 92.7941 12.4604 93.329 12.0244C93.8206 11.573 94.4637 11.3226 95.1285 11.3226C95.1378 11.3226 95.1501 11.3226 95.1594 11.3226C95.7747 11.3226 96.2447 11.5421 96.5971 11.9904C96.9558 12.448 97.0857 12.9891 96.9929 13.6446C96.8847 14.3433 96.5415 14.9401 95.9509 15.4688C95.3666 15.9851 94.7513 16.2201 94.0649 16.183Z" fill="#070808"/>
<path d="M58.7091 9.86005C57.6578 9.82604 56.6591 10.1971 55.7563 10.9639C54.8566 11.7276 54.3062 12.652 54.1207 13.7064L53.2178 18.8173C53.19 18.975 53.2951 19.1234 53.4528 19.1512C53.4683 19.1543 53.4868 19.1543 53.5023 19.1543H54.399C54.5381 19.1543 54.6587 19.0523 54.6834 18.9162L55.0544 16.8045C55.6141 17.3425 56.3376 17.6331 57.2064 17.6671C58.2638 17.7011 59.2563 17.3301 60.153 16.5633C61.0465 15.7996 61.5969 14.8689 61.7855 13.796C61.971 12.7479 61.7639 11.8265 61.1733 11.0628C60.5828 10.2898 59.751 9.88788 58.7091 9.86005ZM57.4259 16.1954C56.7983 16.1954 56.3221 15.9758 55.9635 15.5275C55.6017 15.0699 55.4718 14.5288 55.5739 13.8764C55.6821 13.1746 56.0253 12.5809 56.6158 12.0522C57.1631 11.5668 57.7351 11.3287 58.369 11.3287C58.4153 11.3287 58.4617 11.3287 58.5081 11.3318C59.0801 11.3287 59.6181 11.6039 59.9458 12.0708C60.2983 12.5562 60.4096 13.1096 60.289 13.762C60.1561 14.4392 59.7881 15.0483 59.2501 15.4842C58.6874 15.9635 58.0907 16.1954 57.4259 16.1954Z" fill="#070808"/>
<path d="M79.0353 9.90952C78.3952 9.94044 77.7769 10.1569 77.2543 10.531L77.5759 8.70677C77.6037 8.54908 77.4986 8.40067 77.3409 8.37284C77.3254 8.36975 77.3069 8.36975 77.2914 8.36975H76.37C76.2309 8.36975 76.1103 8.47178 76.0856 8.60783L74.5767 17.1631C74.5489 17.3208 74.654 17.4692 74.8117 17.497C74.8272 17.5001 74.8457 17.5001 74.8612 17.5001H75.7826C75.9217 17.5001 76.0423 17.3981 76.067 17.2621L76.7905 13.1684C76.874 12.6582 77.1461 12.2006 77.5511 11.8822C77.9469 11.5482 78.4478 11.3627 78.9641 11.3596C79.4156 11.3287 79.8546 11.5204 80.1422 11.8698C80.4421 12.2192 80.5596 12.6922 80.4606 13.1406L79.7526 17.1631C79.7247 17.3208 79.8299 17.4692 79.9876 17.497C80.003 17.5001 80.0216 17.5001 80.037 17.5001H80.9584C81.0976 17.5001 81.2181 17.3981 81.2429 17.2621L81.9355 13.3384C82.1055 12.3645 81.9045 11.5328 81.3387 10.8618C80.7636 10.1847 79.9907 9.86005 79.0353 9.90952Z" fill="#070808"/>
<path d="M73.0494 11.4431H74.4068C74.5459 11.4431 74.6665 11.341 74.6912 11.205L74.8427 10.3454C74.8705 10.1877 74.7654 10.0393 74.6077 10.0115C74.5923 10.0084 74.5737 10.0084 74.5583 10.0084H73.3029L73.5317 8.70982C73.5596 8.55213 73.4544 8.40372 73.2968 8.37589C73.2813 8.3728 73.2627 8.3728 73.2473 8.3728H72.3259C72.1868 8.3728 72.0662 8.47484 72.0414 8.61088L71.7941 10.0084H71.4169C71.2777 10.0084 71.1572 10.1105 71.1324 10.2465L70.9809 11.106C70.9531 11.2637 71.0582 11.4121 71.2159 11.44C71.2314 11.4431 71.2499 11.4431 71.2654 11.4431H71.5406L70.8851 15.1626C70.7521 15.9109 70.8665 16.5045 71.219 16.925C71.6209 17.4042 72.3228 17.6454 73.3091 17.6454C73.4483 17.6454 73.5689 17.5434 73.5936 17.4073L73.7296 16.6436C73.7575 16.486 73.6523 16.3375 73.4946 16.3097C73.4792 16.3066 73.4606 16.3066 73.4452 16.3066C72.9968 16.3066 72.6877 16.2077 72.5269 16.016C72.3692 15.8305 72.329 15.5244 72.4001 15.107L73.0494 11.4431Z" fill="#070808"/>
<path d="M80.3 21.5505C78.2377 21.467 76.3084 22.1782 74.5676 23.6654C72.8362 25.1464 71.7726 26.949 71.4046 29.0267C71.046 31.0581 71.4479 32.8391 72.595 34.3232C73.7514 35.8166 75.3468 36.6081 77.3411 36.673C77.4215 36.6761 77.5019 36.6761 77.5853 36.6761C79.2797 36.6699 80.9308 36.1227 82.2943 35.1178L82.0902 36.0175C82.0377 36.3205 82.2387 36.6112 82.5448 36.6637C82.5757 36.6699 82.6097 36.673 82.6406 36.673H84.4246C84.6967 36.673 84.9286 36.4782 84.975 36.2123L86.255 29.203C86.6755 27.1871 86.2952 25.403 85.1234 23.9066C83.9516 22.4132 82.3252 21.6185 80.3 21.5505ZM81.3791 32.4186C80.2475 33.4172 79.0509 33.8718 77.7307 33.8192C76.6269 33.8068 75.5973 33.2657 74.9603 32.366C74.2739 31.4322 74.0606 30.3624 74.3141 29.0948C74.5584 27.7869 75.2633 26.6089 76.2991 25.7741C77.2731 24.896 78.5346 24.4074 79.8486 24.4013C81.0421 24.4013 81.9573 24.8249 82.6468 25.6937C83.3486 26.578 83.5929 27.6199 83.3981 28.8814C83.1755 30.2697 82.4582 31.525 81.3791 32.4186Z" fill="black"/>
<path d="M121.166 32.3846C120.052 33.374 118.884 33.8192 117.576 33.7512C116.487 33.7605 115.47 33.2348 114.846 32.3444C114.787 32.264 114.728 32.1774 114.679 32.0939L123.194 28.5042L125.575 27.4994C125.871 27.3757 126.048 27.0603 125.995 26.7449C125.859 25.9441 125.568 25.1928 125.129 24.5033C125.024 24.3363 124.91 24.1725 124.786 24.0117C123.645 22.5369 122.065 21.7577 120.086 21.6897C118.08 21.6278 116.188 22.3297 114.475 23.7922C112.771 25.2454 111.726 27.017 111.367 29.0577C111.293 29.4844 111.25 29.8987 111.244 30.3037C111.222 31.3735 111.445 32.3629 111.902 33.2596C112.078 33.609 112.289 33.9398 112.533 34.2613C113.668 35.73 115.248 36.4999 117.23 36.5493C117.316 36.5524 117.403 36.5524 117.486 36.5524C119.403 36.5524 121.206 35.8444 122.851 34.4469C123.571 33.8316 124.177 33.1637 124.662 32.4433C124.795 32.2454 124.761 31.9826 124.579 31.8311L123.178 30.6593C122.959 30.4769 122.631 30.5418 122.489 30.7891C122.161 31.3611 121.722 31.8868 121.166 32.3846ZM116.175 25.8359C117.109 24.9795 118.333 24.5002 119.601 24.4971H119.66C120.791 24.4971 121.66 24.8836 122.322 25.6782L114.233 29.0608C114.487 27.79 115.173 26.6491 116.175 25.8359Z" fill="black"/>
<path d="M98.3197 22.2895C98.1001 23.5356 97.9703 24.2065 97.8992 24.5621C97.8528 24.794 97.6487 24.9609 97.4137 24.964C97.2066 24.964 96.9283 24.9702 96.6253 24.9888C96.1213 25.0011 95.5338 25.0475 95.0361 25.131C94.7392 25.1836 94.4795 25.2423 94.2816 25.3258C93.9384 25.4618 93.6107 25.669 93.3015 25.9442C92.7079 26.4729 92.3337 27.1067 92.1915 27.8488L90.7105 36.0052C90.6394 36.3948 90.2993 36.6793 89.9035 36.6793H88.3019C87.7917 36.6793 87.4052 36.2155 87.4949 35.7146L88.9048 27.9508C89.214 26.3028 90.0426 24.8775 91.3845 23.6809C92.4234 22.7688 93.5427 22.1875 94.7423 21.9433C94.7423 21.9433 94.7949 21.9309 94.8907 21.9185C94.968 21.9 95.0732 21.8876 95.2061 21.8721C95.2649 21.866 95.3236 21.8536 95.3947 21.8474C95.4782 21.835 95.5679 21.8227 95.6544 21.8165L95.6854 21.8103C96.2728 21.7454 97.0613 21.6804 97.8311 21.6928C98.1403 21.6959 98.3722 21.9865 98.3197 22.2895Z" fill="black"/>
<path d="M64.1417 21.5939C62.1103 21.529 60.184 22.2463 58.4433 23.7273C56.7087 25.2021 55.6451 26.9831 55.2864 29.0206L53.5457 38.89C53.4931 39.193 53.6941 39.4836 53.9971 39.5362C54.028 39.5424 54.0621 39.5455 54.093 39.5455H55.8244C56.0934 39.5455 56.3253 39.3507 56.3717 39.0848L57.089 35.0066C58.1712 36.0454 59.5656 36.6051 61.2445 36.6731C63.2852 36.7411 65.1991 36.0238 66.9336 34.5397C68.662 33.0648 69.7225 31.2654 70.0874 29.1969C70.4429 27.1748 70.0472 25.3969 68.9032 23.919C67.7592 22.4256 66.1545 21.6434 64.1417 21.5939ZM61.665 33.8255C60.4561 33.8255 59.5316 33.4019 58.8421 32.533C58.1434 31.6488 57.896 30.6068 58.0908 29.3453C58.3011 27.9941 58.9596 26.8408 60.1036 25.8236C61.158 24.8868 62.2649 24.4292 63.4862 24.4292C63.5758 24.4292 63.6655 24.4323 63.7552 24.4353C64.859 24.4261 65.8979 24.961 66.5317 25.8638C67.2119 26.8007 67.4283 27.8674 67.1934 29.1289C66.9336 30.4367 66.2225 31.6116 65.1867 32.4526C64.1015 33.3771 62.9482 33.8255 61.665 33.8255Z" fill="black"/>
<path d="M108.616 32.938L109.401 34.4221C109.531 34.6664 109.463 34.9632 109.24 35.1271C108.64 35.563 107.815 36.0578 106.835 36.3793C106.046 36.605 105.258 36.7225 104.469 36.7225C102.389 36.7225 100.759 35.9805 99.5997 34.5025C98.434 33.0246 98.0692 31.2437 98.5052 29.1566C98.9504 27.0758 100.076 25.2887 101.869 23.8107C103.458 22.4998 105.428 21.6124 107.509 21.6062C108.331 21.6062 109.144 21.7453 109.939 21.9587C110.211 22.036 110.486 22.1349 110.761 22.2555C111.145 22.4225 111.272 22.9048 111.04 23.2511L109.902 24.9516C109.732 25.2052 109.416 25.3134 109.126 25.2175C108.461 24.998 107.277 24.6826 106.074 24.9238C105.177 25.1031 104.346 25.5267 103.644 26.108C102.624 26.9614 101.98 27.9848 101.73 29.1968C101.476 30.3965 101.671 31.4168 102.333 32.2702C102.67 32.7061 103.081 33.0308 103.567 33.2379H103.573C103.591 33.2503 103.613 33.2627 103.632 33.2627C104.077 33.4544 104.584 33.5471 105.143 33.5471C105.508 33.5471 105.879 33.5007 106.257 33.4018C106.337 33.3833 106.43 33.3616 106.516 33.3338C106.934 33.2101 107.376 33.0215 107.83 32.737C108.106 32.5639 108.464 32.6536 108.616 32.938Z" fill="black"/>
<path d="M107.042 33.8192C106.529 33.8192 106.065 33.7388 105.647 33.5842C106.056 33.7203 106.996 33.9522 108.18 33.6708C107.793 33.7728 107.416 33.8192 107.042 33.8192Z" fill="black"/>
<path d="M105.493 33.5286C105.542 33.5502 105.595 33.5657 105.647 33.5842C105.582 33.5626 105.53 33.544 105.493 33.5286Z" fill="black"/>
<path d="M108.585 21.6525C108.585 21.6525 108.603 21.6525 108.643 21.6464C108.619 21.6464 108.603 21.6525 108.585 21.6587V21.6525Z" fill="black"/>
<path d="M133.029 19.7078L129.582 35.9588C129.498 36.3515 129.152 36.6329 128.75 36.6329H127.195C126.654 36.6329 126.252 36.1351 126.363 35.6063L129.811 19.3553C129.894 18.9626 130.24 18.6813 130.642 18.6813H132.198C132.739 18.6813 133.141 19.1791 133.029 19.7078Z" fill="black"/>
</g>
<defs>
<clipPath id="clip0_496_912">
<rect width="133.048" height="47" fill="white"/>
</clipPath>
</defs>
</svg>
