<svg width="98" height="139" viewBox="0 0 98 139" fill="none" xmlns="http://www.w3.org/2000/svg">
<path d="M67.4898 52.7207C67.4898 52.7207 72.6081 21.6971 65.6767 8.49347C62.1549 1.77712 54.6557 0.741305 47.5615 4.04991C43.6482 5.87573 39.869 9.02072 36.9507 13.2637C8.97545 53.9374 3.73891 68.9957 3.73891 68.9957C3.73891 68.9957 35.0408 32.5968 51.5774 30.5962C65.0049 28.9622 67.4995 52.7313 67.4995 52.7313L67.4898 52.7207Z" fill="#FF5872"/>
<path d="M60.3214 103.339C60.3214 103.339 85.8799 85.0243 90.317 70.7873C92.5767 63.5481 88.0072 57.5124 80.6517 54.8346C76.5937 53.358 71.6976 52.9089 66.6337 53.845C18.0904 62.8179 3.7389 69.7611 3.7389 69.7611C3.7389 69.7611 51.611 66.163 64.7175 76.4433C75.3666 84.7839 60.3208 103.353 60.3208 103.353L60.3214 103.339Z" fill="#E20BC3"/>
<path d="M19.4537 134.7C19.4537 134.7 50.4312 140.09 63.695 133.274C70.4419 129.811 71.5434 122.322 68.297 115.199C66.5055 111.27 63.3937 107.463 59.1764 104.508C18.7491 76.1774 3.73728 70.8093 3.73728 70.8093C3.73728 70.8093 39.8608 102.429 41.7165 118.982C43.233 132.423 19.4429 134.71 19.4429 134.71L19.4537 134.7Z" fill="#883FFF"/>
</svg>
