<svg width="10341" height="2856" viewBox="0 0 10341 2856" fill="none" xmlns="http://www.w3.org/2000/svg">
<path d="M1387.93 1088.33C1387.93 1088.33 1493.59 447.901 1350.5 175.334C1277.8 36.6857 1122.99 15.303 976.543 83.6038C895.758 121.295 817.742 186.218 757.5 273.808C179.996 1113.45 71.8962 1424.3 71.8962 1424.3C71.8962 1424.3 718.072 672.907 1059.44 631.61C1336.63 597.876 1388.13 1088.55 1388.13 1088.55L1387.93 1088.33Z" fill="#FF5872"/>
<path d="M1239.94 2133.26C1239.94 2133.26 1767.55 1755.19 1859.15 1461.29C1905.8 1311.85 1811.47 1187.25 1659.62 1131.97C1575.85 1101.49 1474.78 1092.22 1370.25 1111.54C368.148 1296.77 71.8848 1440.1 71.8848 1440.1C71.8848 1440.1 1060.13 1365.83 1330.69 1578.05C1550.52 1750.23 1239.93 2133.56 1239.93 2133.56L1239.94 2133.26Z" fill="#E20BC3"/>
<path d="M396.298 2780.66C396.298 2780.66 1035.78 2891.92 1309.59 2751.23C1448.87 2679.74 1471.61 2525.13 1404.59 2378.09C1367.61 2296.98 1303.37 2218.4 1216.31 2157.39C381.755 1572.56 71.859 1461.74 71.859 1461.74C71.859 1461.74 817.571 2114.47 855.878 2456.19C887.184 2733.66 396.077 2780.86 396.077 2780.86L396.298 2780.66Z" fill="#883FFF"/>
<path d="M3173.26 2250.83C3097.72 2250.83 3029.89 2236.2 2969.76 2206.94C2911.18 2176.14 2861.07 2134.56 2819.44 2082.21C2779.36 2029.85 2748.53 1969.79 2726.94 1902.03C2706.9 1832.74 2696.88 1758.82 2696.88 1680.28C2698.42 1601.74 2709.98 1528.6 2731.57 1460.84C2753.15 1391.54 2783.98 1331.48 2824.07 1280.67C2865.69 1228.31 2915.8 1187.5 2974.38 1158.24C3032.97 1128.98 3099.26 1114.35 3173.26 1114.35C3244.18 1114.35 3310.48 1128.98 3372.14 1158.24C3435.35 1187.5 3490.86 1228.31 3538.65 1280.67C3587.98 1331.48 3626.53 1391.54 3654.28 1460.84C3682.03 1528.6 3695.9 1600.97 3695.9 1677.97C3695.9 1758.05 3682.03 1833.51 3654.28 1904.34C3626.53 1973.64 3588.75 2034.47 3540.96 2086.83C3493.17 2137.64 3437.67 2177.68 3374.46 2206.94C3311.25 2236.2 3244.18 2250.83 3173.26 2250.83ZM3136.26 1980.57C3190.22 1980.57 3238.79 1968.25 3281.96 1943.61C3325.12 1917.43 3359.04 1882.01 3383.71 1837.36C3409.92 1792.7 3423.02 1741.88 3423.02 1684.9C3423.02 1626.38 3409.92 1574.79 3383.71 1530.14C3359.04 1483.94 3325.12 1448.52 3281.96 1423.88C3238.79 1397.7 3190.22 1384.61 3136.26 1384.61C3083.85 1384.61 3036.05 1397.7 2992.89 1423.88C2949.72 1450.06 2915.03 1485.48 2888.82 1530.14C2864.15 1574.79 2851.82 1626.38 2851.82 1684.9C2851.82 1741.88 2864.15 1792.7 2888.82 1837.36C2915.03 1882.01 2949.72 1917.43 2992.89 1943.61C3036.05 1968.25 3083.85 1980.57 3136.26 1980.57ZM2708.44 2253.14C2666.81 2253.14 2635.98 2246.21 2615.94 2232.35C2595.9 2220.03 2583.56 2203.86 2578.94 2183.84C2574.31 2162.28 2572 2138.41 2572 2112.24V735.525C2572 709.346 2574.31 686.247 2578.94 666.227C2583.56 644.668 2595.9 627.729 2615.94 615.409C2635.98 603.09 2666.81 596.93 2708.44 596.93C2751.61 596.93 2782.44 603.09 2800.94 615.409C2819.44 627.729 2831.01 644.668 2835.63 666.227C2840.26 687.786 2842.57 710.886 2842.57 735.525V2158.43C2836.4 2192.31 2823.3 2216.18 2803.26 2230.04C2784.76 2245.44 2753.15 2253.14 2708.44 2253.14Z" fill="#222222"/>
<path d="M4302.35 2253.14C4245.31 2253.14 4194.43 2249.29 4149.72 2241.59C4106.56 2233.89 4068.78 2220.8 4036.41 2202.32C4005.57 2183.84 3980.14 2159.2 3960.09 2128.4C3940.05 2096.07 3924.64 2056.8 3913.84 2010.6C3904.59 1964.4 3899.97 1908.96 3899.97 1844.29V730.905C3899.97 704.726 3902.28 681.627 3906.91 661.607C3913.07 640.048 3925.41 623.109 3943.91 610.789C3963.95 596.93 3995.55 590 4038.72 590C4081.89 590 4112.72 596.16 4131.22 608.479C4151.27 620.799 4163.6 637.738 4168.22 659.298C4174.39 679.317 4177.47 702.416 4177.47 728.595V1832.74C4177.47 1861.99 4179.02 1886.63 4182.1 1906.65C4186.72 1925.13 4193.66 1940.53 4202.91 1952.85C4213.7 1963.63 4226.81 1971.33 4242.23 1975.95C4259.19 1980.57 4279.23 1982.88 4302.35 1982.88C4322.39 1982.88 4340.12 1985.19 4355.54 1989.81C4372.5 1994.43 4385.6 2005.98 4394.86 2024.46C4405.65 2042.94 4411.04 2072.97 4411.04 2114.55C4411.04 2157.66 4405.65 2189.23 4394.86 2209.25C4385.6 2229.27 4372.5 2241.59 4355.54 2246.21C4338.58 2250.83 4320.85 2253.14 4302.35 2253.14Z" fill="#222222"/>
<path d="M5525.73 2248.52C5481.02 2248.52 5447.88 2240.05 5426.29 2223.11C5404.71 2206.17 5393.92 2183.07 5393.92 2153.81L5410.1 2077.59C5397.77 2097.61 5376.96 2121.48 5347.66 2149.19C5318.37 2175.37 5279.83 2199.24 5232.04 2220.8C5184.24 2240.82 5126.43 2250.83 5058.6 2250.83C4986.13 2250.83 4917.53 2236.2 4852.78 2206.94C4789.57 2176.14 4733.3 2134.56 4683.96 2082.21C4636.17 2028.31 4597.63 1967.48 4568.33 1899.72C4540.58 1830.43 4526.71 1756.51 4526.71 1677.97C4526.71 1602.51 4540.58 1531.68 4568.33 1465.46C4597.63 1397.7 4636.94 1337.64 4686.27 1285.29C4735.61 1232.93 4791.88 1192.12 4855.09 1162.86C4919.84 1132.06 4987.68 1116.66 5058.6 1116.66C5121.8 1116.66 5174.99 1125.13 5218.16 1142.07C5262.87 1159.01 5300.64 1180.57 5331.48 1206.75C5362.31 1231.39 5387.75 1257.57 5407.79 1285.29L5393.92 1218.3C5393.92 1184.42 5404.71 1159.01 5426.29 1142.07C5447.88 1123.59 5481.79 1114.35 5528.04 1114.35C5571.21 1114.35 5602.05 1121.28 5620.55 1135.14C5639.05 1147.46 5650.61 1165.17 5655.23 1188.27C5659.86 1209.83 5662.17 1234.47 5662.17 1262.19V2107.62C5662.17 2133.79 5659.86 2157.66 5655.23 2179.22C5650.61 2200.78 5638.28 2217.72 5618.23 2230.04C5599.73 2242.36 5568.9 2248.52 5525.73 2248.52ZM5100.22 1980.57C5152.64 1980.57 5199.66 1967.48 5241.29 1941.3C5282.91 1915.12 5316.06 1879.7 5340.73 1835.05C5366.94 1788.85 5380.04 1738.03 5380.04 1682.59C5380.04 1622.53 5366.94 1570.17 5340.73 1525.52C5314.52 1480.86 5279.83 1446.21 5236.66 1421.57C5195.04 1395.39 5148.01 1382.3 5095.6 1382.3C5038.55 1382.3 4987.68 1396.16 4942.97 1423.88C4898.26 1450.06 4862.8 1486.25 4836.59 1532.45C4811.92 1577.1 4799.59 1627.92 4799.59 1684.9C4799.59 1740.34 4812.69 1790.39 4838.9 1835.05C4865.11 1879.7 4900.57 1915.12 4945.28 1941.3C4991.53 1967.48 5043.18 1980.57 5100.22 1980.57Z" fill="#222222"/>
<path d="M6030.65 2250.83C5989.02 2250.83 5958.19 2243.9 5938.14 2230.04C5919.64 2217.72 5908.08 2201.55 5903.46 2181.53C5898.83 2159.97 5896.52 2136.1 5896.52 2109.93V1246.02C5896.52 1221.38 5898.83 1199.05 5903.46 1179.03C5908.08 1159.01 5920.41 1143.61 5940.46 1132.83C5960.5 1120.51 5991.33 1114.35 6032.96 1114.35C6069.96 1114.35 6097.71 1118.97 6116.21 1128.21C6134.71 1137.45 6147.04 1149 6153.21 1162.86C6159.38 1176.72 6162.46 1190.58 6162.46 1204.44C6164 1218.3 6165.55 1229.08 6167.09 1236.78L6157.84 1310.69C6167.09 1286.06 6182.5 1262.19 6204.09 1239.09C6225.67 1215.99 6251.88 1195.2 6282.71 1176.72C6313.55 1156.7 6346.7 1141.3 6382.15 1130.52C6419.16 1118.2 6456.93 1112.04 6495.47 1112.04C6567.93 1112.04 6632.68 1125.13 6689.72 1151.31C6746.77 1177.49 6795.33 1214.45 6835.42 1262.19C6877.04 1309.92 6908.65 1366.9 6930.23 1433.12C6951.81 1497.8 6962.61 1570.94 6962.61 1652.56V2112.24C6962.61 2138.41 6959.52 2162.28 6953.36 2183.84C6948.73 2203.86 6937.17 2220.03 6918.67 2232.35C6900.17 2244.67 6868.56 2250.83 6823.85 2250.83C6780.69 2250.83 6749.08 2243.9 6729.04 2230.04C6709 2217.72 6696.66 2201.55 6692.04 2181.53C6687.41 2159.97 6685.1 2136.1 6685.1 2109.93V1650.25C6685.1 1594.81 6675.08 1547.08 6655.04 1507.04C6636.54 1467 6608.79 1436.2 6571.78 1414.64C6536.33 1393.08 6490.84 1382.3 6435.34 1382.3C6381.38 1382.3 6334.36 1393.85 6294.28 1416.95C6254.19 1438.51 6223.36 1469.31 6201.78 1509.35C6180.19 1549.39 6169.4 1596.35 6169.4 1650.25V2112.24C6169.4 2138.41 6167.09 2162.28 6162.46 2183.84C6157.84 2203.86 6145.5 2220.03 6125.46 2232.35C6106.96 2244.67 6075.36 2250.83 6030.65 2250.83Z" fill="#222222"/>
<path d="M8117.89 1146.69C8147.18 1172.87 8165.68 1195.97 8173.39 1215.99C8182.64 1236.01 8182.64 1256.8 8173.39 1278.36C8165.68 1298.37 8148.73 1323.01 8122.52 1352.27L7389.44 2200.01C7363.23 2227.73 7340.1 2246.21 7320.06 2255.45C7300.02 2266.23 7279.97 2267.77 7259.93 2260.07C7241.43 2252.37 7219.08 2237.74 7192.87 2216.18C7166.66 2190 7148.93 2167.67 7139.68 2149.19C7130.43 2129.17 7130.43 2108.39 7139.68 2086.83C7150.47 2065.27 7168.2 2040.63 7192.87 2012.91L7925.95 1165.17C7964.49 1123.59 7996.1 1101.26 8020.76 1098.18C8046.97 1095.1 8079.35 1111.27 8117.89 1146.69ZM7195.18 1146.69C7221.39 1123.59 7243.74 1108.96 7262.25 1102.8C7282.29 1096.64 7301.56 1098.95 7320.06 1109.73C7340.1 1118.97 7362.46 1137.45 7387.12 1165.17L8120.2 2012.91C8146.41 2040.63 8164.14 2065.27 8173.39 2086.83C8182.64 2108.39 8183.41 2129.17 8175.71 2149.19C8168 2167.67 8149.5 2190 8120.2 2216.18C8093.99 2239.28 8070.87 2253.91 8050.83 2260.07C8032.33 2267.77 8013.06 2266.23 7993.01 2255.45C7974.51 2246.21 7951.39 2227.73 7923.64 2200.01L7190.56 1352.27C7165.89 1324.55 7148.93 1299.91 7139.68 1278.36C7130.43 1256.8 7130.43 1236.01 7139.68 1215.99C7148.93 1194.43 7167.43 1171.33 7195.18 1146.69Z" fill="#222222"/>
<path d="M8870.07 2267C8769.86 2267 8681.98 2250.83 8606.44 2218.49C8532.44 2186.15 8470 2142.26 8419.12 2086.83C8369.79 2029.85 8332.01 1966.71 8305.8 1897.41C8281.14 1826.58 8268.8 1753.43 8268.8 1677.97C8268.8 1567.1 8294.24 1468.54 8345.12 1382.3C8395.99 1296.06 8466.14 1228.31 8555.56 1179.03C8646.52 1129.75 8750.59 1105.11 8867.76 1105.11C8951.01 1105.11 9024.24 1118.2 9087.45 1144.38C9150.66 1170.56 9203.08 1205.21 9244.7 1248.33C9287.87 1289.9 9320.25 1336.1 9341.83 1386.92C9364.96 1437.74 9376.52 1487.02 9376.52 1534.76C9376.52 1616.37 9356.48 1675.66 9316.39 1712.62C9277.85 1749.58 9229.29 1768.06 9170.7 1768.06H8560.19C8561.73 1820.42 8577.92 1865.84 8608.75 1904.34C8641.13 1942.84 8681.21 1972.87 8729 1994.43C8778.34 2014.45 8828.44 2024.46 8879.32 2024.46C8917.86 2024.46 8951.78 2022.15 8981.07 2017.53C9011.91 2012.91 9038.11 2007.52 9059.7 2001.36C9081.28 1993.66 9099.78 1985.96 9115.2 1978.26C9132.16 1970.56 9147.58 1963.63 9161.45 1957.47C9175.33 1951.31 9188.43 1947.46 9200.76 1945.92C9217.72 1944.38 9234.68 1948.23 9251.64 1957.47C9268.6 1966.71 9282.47 1982.88 9293.27 2005.98C9302.52 2021.38 9308.68 2036.01 9311.77 2049.87C9316.39 2062.19 9318.7 2074.51 9318.7 2086.83C9318.7 2117.63 9300.2 2146.88 9263.2 2174.6C9226.2 2200.78 9173.78 2222.34 9105.95 2239.28C9039.66 2257.76 8961.03 2267 8870.07 2267ZM8560.19 1604.05H9034.26C9060.47 1604.05 9080.51 1600.2 9094.39 1592.5C9108.26 1583.26 9115.2 1564.79 9115.2 1537.07C9115.2 1501.65 9104.41 1470.08 9082.82 1442.36C9061.24 1413.1 9031.95 1390.77 8994.95 1375.37C8957.95 1358.43 8914.78 1349.96 8865.44 1349.96C8808.4 1349.96 8756.75 1361.51 8710.5 1384.61C8664.25 1406.17 8627.25 1436.2 8599.5 1474.7C8573.29 1513.2 8560.19 1556.32 8560.19 1604.05Z" fill="#222222"/>
<path d="M9702.73 2253.14C9661.11 2253.14 9630.27 2246.21 9610.23 2232.35C9591.73 2220.03 9580.17 2203.09 9575.54 2181.53C9570.92 2159.97 9568.61 2136.1 9568.61 2109.93V1252.95C9568.61 1225.23 9570.92 1201.36 9575.54 1181.34C9580.17 1159.78 9591.73 1143.61 9610.23 1132.83C9630.27 1120.51 9661.88 1114.35 9705.05 1114.35C9746.67 1114.35 9776.74 1119.74 9795.24 1130.52C9815.28 1141.3 9827.61 1155.16 9832.24 1172.1C9838.4 1187.5 9841.49 1202.9 9841.49 1218.3L9822.99 1259.88C9830.7 1247.56 9841.49 1232.93 9855.36 1215.99C9869.24 1197.51 9887.74 1179.8 9910.86 1162.86C9933.99 1144.38 9961.74 1129.75 9994.12 1118.97C10026.5 1106.65 10065 1100.49 10109.7 1100.49C10128.2 1100.49 10147.5 1102.8 10167.6 1107.42C10189.1 1110.5 10210 1115.89 10230 1123.59C10251.6 1129.75 10270.9 1138.22 10287.8 1149C10304.8 1159.78 10317.9 1172.87 10327.1 1188.27C10336.4 1202.13 10341 1218.3 10341 1236.78C10341 1286.06 10328.7 1327.63 10304 1361.51C10279.3 1395.39 10250 1412.33 10216.1 1412.33C10193 1412.33 10176 1410.02 10165.2 1405.4C10154.5 1400.78 10145.2 1395.39 10137.5 1389.23C10131.3 1383.07 10121.3 1377.68 10107.4 1373.06C10095.1 1368.44 10075.1 1366.13 10047.3 1366.13C10024.2 1366.13 10000.3 1369.98 9975.62 1377.68C9952.49 1385.38 9930.91 1396.93 9910.86 1412.33C9890.82 1427.73 9874.63 1447.75 9862.3 1472.39C9849.97 1495.49 9843.8 1522.44 9843.8 1553.24V2114.55C9843.8 2140.72 9841.49 2164.59 9836.86 2186.15C9832.24 2206.17 9819.9 2222.34 9799.86 2234.66C9779.82 2246.98 9747.44 2253.14 9702.73 2253.14Z" fill="#222222"/>
</svg>
