<svg xmlns="http://www.w3.org/2000/svg" version="1.1" xmlns:xlink="http://www.w3.org/1999/xlink" xmlns:svgjs="http://svgjs.com/svgjs" width="512" height="512" x="0" y="0" viewBox="0 0 510 510" style="enable-background:new 0 0 512 512" xml:space="preserve" class=""><g><path fill="#464f75" d="M508.528 77.679c-1.434 16.524-8.604 32.232-20.663 44.289l-40.146 40.146-10.198-.181-1.615-11.632z" data-original="#464f75"></path><path fill="#4d5e80" d="m30.461 5.791 63.717 81.922c44.29 56.943 126.496 62.759 178.623 15.844l78.285-70.456A128.74 128.74 0 0 1 437.345 0c41.44 0 74.836 35.63 71.184 77.679l-72.622 72.622-9.049-1.204-.351-8.196 40.146-40.146C492.822 74.586 473.982 30 437.345 30a98.792 98.792 0 0 0-66.189 25.399l-78.285 70.457c-65.746 59.17-168.03 50.143-222.372-19.725L6.781 24.209z" data-original="#4d5e80"></path><path fill="#5ecbf1" d="m382.873 203.334-26.296-6.626-14.924-34.594 36.214-36.213h33.64l24.4 24.4-22.275 34.309z" data-original="#5ecbf1"></path><path fill="#4793ff" d="m435.906 150.301 26.813 26.813v33.64l-36.213 36.213-29.891-16.553-13.743-27.08z" data-original="#4793ff"></path><path fill="#4793ff" d="m329.84 256.367-41.219-41.22 53.032-53.033 41.22 41.22L365.536 236z" data-original="#4793ff"></path><path fill="#525cdd" d="m329.78 256.379 53.025-53.025 43.626 43.627-53.025 53.025z" data-original="#525cdd"></path><path fill="#5ecbf1" d="m210.772 199.394-42.425 42.426-1.251 12.891 11.856-2.284 27.812-13.669L221.379 210z" data-original="#5ecbf1"></path><path fill="#4793ff" d="m189.56 263.033 42.425-42.427L221.379 210l-42.427 42.427-1.165 12.976z" data-original="#4793ff"></path><path fill="#4d5e80" d="m62.28 347.886-40.146 40.146a71.302 71.302 0 0 0-20.367 41.581l48.608-34.466 22.512-36.654 1.592-12.551z" data-original="#4d5e80"></path><path fill="#464f75" d="M439.502 403.868c-53.982-69.404-156.233-79.248-222.372-19.725L138.845 454.6a98.79 98.79 0 0 1-66.19 25.4c-36.56 0-55.52-44.543-29.308-70.755l40.145-40.146 2.37-11.772-12.977 1.165-71.12 71.121C-3.643 472.714 30.271 510 72.655 510a128.74 128.74 0 0 0 86.258-33.101l78.285-70.457c52.152-46.934 134.351-41.078 178.623 15.844l63.718 81.923 23.681-18.418z" data-original="#464f75"></path><path fill="#ffdf40" d="M83.493 263.033 47.28 299.246v33.64l25.607 25.606 36.178-22.036 16.855-30.996-14.143-28.285z" data-original="#ffdf40"></path><path fill="#ffbe40" d="m125.92 305.46-53.033 53.033 25.607 25.606h33.639l36.213-36.213-12.727-26.87zM178.952 252.427l-42.426-42.426-53.033 53.032 42.427 42.427 33.587-19.446z" data-original="#ffbe40" class=""></path><path fill="#ff9f40" d="M125.876 305.445 178.9 252.42l42.42 42.42-53.025 53.025z" data-original="#ff9f40"></path></g></svg>