<svg xmlns="http://www.w3.org/2000/svg" version="1.1" xmlns:xlink="http://www.w3.org/1999/xlink" xmlns:svgjs="http://svgjs.com/svgjs" width="512" height="512" x="0" y="0" viewBox="0 0 512 512" style="enable-background:new 0 0 512 512" xml:space="preserve" class=""><g><circle cx="256" cy="256" r="256" fill="#b180ff" data-original="#b180ff" class=""></circle><path fill="#9a4dff" d="m505.471 313.701-210.65-210.65-67.991 13.411-7.695 55.968 55.887 55.383L55.828 334.596l176.307 176.307A259.338 259.338 0 0 0 256 512c121.543 0 223.303-84.703 249.471-198.299z" data-original="#9a4dff"></path><path fill="#e9edf5" d="M254.452 115.368c.358-.025.836-.042 1.192-.049 5.578-.088 10.846 1.925 14.931 5.738 4.381 4.089 6.794 9.639 6.794 15.627h30c0-14.186-5.949-27.875-16.323-37.557-9.724-9.077-22.194-13.905-35.402-13.801-.982.012-2.267.046-3.256.114-25.402 1.752-45.88 22.229-47.633 47.633-1.491 21.64 10.833 42.011 30.669 50.689 3.388 1.482 5.576 4.965 5.576 8.872v30.643h30v-30.643c0-12.544-5.823-24.094-15.356-31.469-2.459-1.897-5.274-3.609-8.196-4.887-8.257-3.613-13.387-12.109-12.764-21.141.727-10.543 9.226-19.041 19.768-19.769z" data-original="#e9edf5"></path><path fill="#ffce00" d="M220.424 211.49v36.53L55.828 289.255v45.341l199.816-48.832 2.437-1.426 3.966-36.173-6.403-36.675z" data-original="#ffce00" class=""></path><path fill="#fdba12" d="M291.576 248.02v-36.53h-35.932v74.274l200.528 48.832v-45.341z" data-original="#fdba12"></path></g></svg>