<svg xmlns="http://www.w3.org/2000/svg" version="1.1" xmlns:xlink="http://www.w3.org/1999/xlink" xmlns:svgjs="http://svgjs.com/svgjs" width="512" height="512" x="0" y="0" viewBox="0 0 850 850" style="enable-background:new 0 0 512 512" xml:space="preserve" class=""><g><linearGradient id="id0" gradientUnits="userSpaceOnUse" x1="425" x2="425" y1="850" y2="0"><stop offset="0" stop-color="#1aa8dc"></stop><stop offset=".490196" stop-color="#ae3b89"></stop><stop offset="1" stop-color="#f26270"></stop></linearGradient><g id="Layer_x0020_1"><circle cx="425" cy="425" fill="url(#id0)" r="425" data-original="url(#id0)" class=""></circle><g id="_645060864"><g><g><path d="m514 343c-80 0-166-19-166-55 0-37 83-56 166-56s167 19 167 56c0 36-86 55-167 55zm0-96c-94 0-152 24-152 41s58 41 152 41 152-24 152-41-58-41-152-41z" fill="#ffffff" data-original="#ffffff" class=""></path></g><g><path d="m514 412c-45 0-89-6-120-16-4-1-6-6-5-9 2-4 6-6 10-5 30 10 72 16 115 16 94 0 152-25 152-42 0-4 3-7 8-7 4 0 7 3 7 7 0 37-86 56-167 56z" fill="#ffffff" data-original="#ffffff" class=""></path></g><g><path d="m514 481c-28 0-57-3-81-7-4-1-7-4-6-8s5-7 9-6c23 4 50 7 78 7 94 0 152-25 152-42 0-4 3-7 8-7 4 0 7 3 7 7 0 36-86 56-167 56z" fill="#ffffff" data-original="#ffffff" class=""></path></g><g><path d="m674 569c-5 0-8-3-8-7v-274c0-4 3-8 8-8 4 0 7 4 7 8v274c0 4-4 7-7 7z" fill="#ffffff" data-original="#ffffff" class=""></path></g><g><path d="m306 618c-76 0-137-62-137-137s61-136 136-136c76 0 137 61 137 136s-61 137-136 137zm0-259c-68 0-122 55-122 122 0 68 54 122 121 122 68 0 122-55 122-122 1-67-54-122-121-122z" fill="#ffffff" data-original="#ffffff" class=""></path></g><g><g><path d="m306 559c-4 0-8-3-8-7v-20c0-4 4-8 8-8s7 4 7 8v20c0 4-3 7-7 7zm0-122c-4 0-8-3-8-7v-20c0-4 4-7 8-7s7 3 7 7v20c0 4-3 7-7 7z" fill="#ffffff" data-original="#ffffff" class=""></path></g><g><path d="m306 540c-12 0-22-6-28-16-3-4-1-8 2-10s8-1 10 2c3 6 10 9 16 9 10 0 18-8 18-18s-8-18-18-18c-18 0-33-15-33-33 0-19 15-33 33-33 11 0 22 6 28 17 2 3 1 7-2 10-4 2-8 0-10-3-4-6-10-9-16-9-10 0-18 8-18 18s8 18 18 18c18 0 33 15 33 33-1 18-15 33-33 33z" fill="#ffffff" data-original="#ffffff" class=""></path></g></g><g><path d="m306 596c-63 0-115-52-115-115s52-114 114-114c63 0 115 51 115 114s-51 115-114 115zm0-214c-55 0-100 44-100 99s45 100 100 100 99-45 99-100-44-99-99-99z" fill="#ffffff" data-original="#ffffff" class=""></path></g><g><path d="m355 369c-4 0-8-3-8-8v-73c0-4 4-8 8-8s7 4 7 8v74c0 4-3 7-7 7z" fill="#ffffff" data-original="#ffffff" class=""></path></g><g><path d="m514 618c-56 0-108-9-138-23-4-2-5-7-3-10 1-4 6-5 9-3 29 14 78 22 132 22 94 0 152-24 152-41 0-4 3-8 8-8 4 0 7 4 7 8 0 35-84 55-167 55z" fill="#ffffff" data-original="#ffffff" class=""></path></g><g><path d="m514 549c-33 0-65-3-91-8-4-1-7-5-6-9s4-7 9-6c25 5 56 8 88 8 94 0 152-24 152-41 0-4 3-7 8-7 4 0 7 3 7 7 0 37-86 56-167 56z" fill="#ffffff" data-original="#ffffff" class=""></path></g></g></g></g></g></svg>