<svg width="422" height="309" viewBox="0 0 422 309" fill="none" xmlns="http://www.w3.org/2000/svg">
<path d="M412.728 297.799C412.729 293.828 412.724 289.856 412.717 285.885V285.856C412.693 270.95 412.642 256.045 412.738 241.141C412.927 211.851 413.319 182.564 413.496 153.273L413.506 151.59L413.516 149.947C413.552 143.312 413.12 136.662 412.543 130.026C412.109 125.035 410.199 123.711 402.63 122.856C399.301 122.48 395.937 122.153 392.569 121.933C390.57 121.801 388.568 121.711 386.565 121.665H386.549C384.467 121.62 382.386 121.577 380.304 121.536L379.137 121.513C377.108 121.473 375.08 121.435 373.051 121.398L372.144 121.382C354.458 121.061 336.771 120.825 319.087 120.436C290.271 119.803 261.458 118.983 232.643 118.31C213.429 117.861 194.213 117.503 174.998 117.151C168.443 117.031 161.883 117.17 155.333 116.984C141.513 116.592 127.697 116.089 113.882 115.585C102.41 115.167 90.945 114.557 79.47 114.261C77.7484 114.217 76.0267 114.175 74.305 114.135H74.302C71.697 114.075 69.092 114.02 66.486 113.973L66.175 113.967C64.944 113.945 63.714 113.925 62.483 113.906L62.053 113.9C60.812 113.882 59.57 113.865 58.329 113.851L58.175 113.849C56.9583 113.836 55.7417 113.824 54.525 113.815L54.178 113.812C52.992 113.804 51.806 113.797 50.62 113.793L49.99 113.791C48.823 113.788 47.657 113.786 46.49 113.787L45.927 113.788C44.709 113.79 43.492 113.794 42.275 113.802C39.978 113.816 37.676 114.031 35.389 114.336C33.102 114.641 30.831 115.038 28.595 115.416C27.161 115.659 25.941 116.032 24.948 116.535C24.858 116.581 24.769 116.628 24.683 116.676C24.1936 116.945 23.7397 117.274 23.332 117.655C23.083 117.892 22.8592 118.154 22.664 118.437C22.5212 118.645 22.3954 118.864 22.288 119.092C22.0311 119.645 21.8776 120.24 21.835 120.848C21.7851 121.474 21.7267 122.1 21.66 122.724C21.527 123.974 21.365 125.223 21.2 126.471C21.117 127.095 21.034 127.719 20.953 128.344C20.872 128.968 20.793 129.592 20.719 130.217C20.498 132.09 20.325 133.964 20.285 135.842C20.2675 136.669 20.2525 137.496 20.24 138.322L20.232 138.931C20.223 139.574 20.214 140.218 20.208 140.861L20.203 141.397C20.196 142.09 20.191 142.783 20.187 143.477L20.185 143.79C20.13 153.388 20.274 162.991 20.073 172.586C19.442 202.746 18.721 232.904 18.008 263.062V263.082C17.793 272.161 17.579 281.24 17.369 290.318C17.354 290.964 17.366 291.569 17.409 292.134C17.423 292.323 17.441 292.507 17.463 292.687C17.527 293.227 17.624 293.729 17.757 294.196C17.89 294.663 18.059 295.095 18.269 295.494C18.4425 295.824 18.6468 296.137 18.879 296.428C19.205 296.834 19.59 297.2 20.04 297.529C20.233 297.67 20.438 297.805 20.656 297.933C20.874 298.061 21.104 298.184 21.347 298.3C21.7775 298.505 22.2204 298.683 22.673 298.833C24.687 299.516 27.378 299.941 30.913 300.23C31.262 300.259 31.613 300.275 31.964 300.287C32.316 300.3 32.668 300.308 33.019 300.321L33.066 300.323L37.068 300.472L38.462 300.525L41.102 300.626L42.808 300.692L44.557 300.76C52.658 301.075 60.758 301.399 68.859 301.691H68.861C74.947 301.911 81.033 302.112 87.12 302.278C127.654 303.383 168.193 304.335 208.73 305.349L208.731 305.3C223.027 305.658 237.322 306.138 251.618 306.349C292.624 306.953 333.631 307.491 374.639 307.963C377.974 308.002 381.31 308.011 384.646 307.989C390.206 307.956 395.763 307.847 401.308 307.684C401.456 307.68 401.602 307.674 401.747 307.668L401.857 307.663L402.254 307.644L402.287 307.642C402.458 307.632 402.629 307.621 402.8 307.609C402.925 307.6 403.048 307.591 403.17 307.58L403.212 307.577C403.348 307.565 403.483 307.553 403.616 307.539L403.686 307.532L404.046 307.492L404.084 307.488L404.476 307.438L404.515 307.433L404.876 307.38L404.904 307.376C405.033 307.356 405.161 307.334 405.287 307.312L405.292 307.311C405.416 307.289 405.538 307.266 405.659 307.242L405.677 307.238C405.923 307.189 406.162 307.135 406.393 307.078L406.402 307.076C406.635 307.018 406.861 306.956 407.079 306.889L407.082 306.888C410.34 305.896 411.975 303.962 412.556 300.893C412.744 299.873 412.728 298.832 412.728 297.799Z" fill="#66CC99"/>
<path d="M358.132 277.133C360.477 272.901 363.62 269.422 367.621 266.701C371.587 264.004 375.948 262.262 380.696 261.771C383.901 261.439 387.16 261.445 390.386 261.558C391.039 261.581 391.684 261.634 392.323 261.713C392.291 253.249 392.27 244.785 392.312 236.323C392.421 214.243 392.681 192.166 392.808 170.087C390.275 170.076 387.747 169.9 385.239 169.415C379.4 168.288 374.423 165.511 370.022 161.56C365.394 157.405 361.918 152.48 359.919 146.594C358.851 143.45 358.255 140.341 358.145 137.27C341.54 136.953 324.933 136.721 308.329 136.352C282.55 135.78 256.773 135.053 230.995 134.447C213.806 134.043 196.616 133.715 179.425 133.391C173.561 133.281 167.693 133.385 161.833 133.22C149.47 132.873 137.109 132.433 124.75 131.993C114.487 131.628 104.229 131.104 93.9641 130.84C87.5601 130.675 81.1511 130.541 74.7451 130.463C74.5826 132.199 74.2698 133.918 73.8101 135.6C73.2911 137.511 72.6261 139.383 72.0281 141.273C69.5831 146.445 66.7301 151.296 62.3141 155.044C57.9351 158.76 52.8911 160.938 47.1271 161.228C45.0771 161.331 43.0261 161.375 40.9801 161.288C41.0001 167.182 41.0481 173.076 40.9271 178.967C40.4211 203.568 39.8361 228.168 39.2571 252.767C39.6841 252.778 40.1101 252.79 40.5361 252.805C44.8761 252.956 48.9001 254.423 52.7631 256.328C54.1941 257.034 55.5901 257.813 57.0031 258.555C59.5101 259.87 61.7731 261.507 63.5741 263.71C64.2531 264.541 64.8921 265.428 65.4021 266.369C66.7571 268.87 68.3011 271.314 69.2811 273.962C70.6302 277.579 71.1838 281.445 70.9041 285.296C80.9761 285.679 91.0481 286.052 101.123 286.325C137.386 287.308 173.652 288.163 209.918 289.07L209.919 289.03C222.708 289.35 235.497 289.772 248.286 289.97C283.604 290.519 318.922 291.011 354.239 291.46C354.272 286.581 355.546 281.8 358.132 277.133Z" fill="#339966"/>
<path d="M112.378 214.512C111.15 217.11 109.717 219.547 107.498 221.43C105.298 223.297 102.764 224.391 99.8681 224.537C97.8971 224.636 95.9221 224.63 93.9721 224.253C91.0381 223.687 88.5381 222.292 86.3281 220.307C84.0031 218.22 82.2571 215.746 81.2521 212.789C79.7881 208.481 80.0831 204.302 82.3071 200.29C83.4569 198.189 85.0911 196.392 87.0741 195.049C89.0661 193.694 91.2571 192.819 93.6421 192.572C95.2521 192.405 96.8891 192.408 98.5101 192.465C100.69 192.541 102.712 193.278 104.653 194.235C105.372 194.59 106.073 194.981 106.783 195.354C108.043 196.015 109.179 196.837 110.084 197.944C110.425 198.361 110.746 198.807 111.002 199.28C111.683 200.536 112.458 201.764 112.951 203.094C113.987 205.891 114.056 208.778 113.273 211.664C113.013 212.622 112.679 213.562 112.378 214.512ZM351.569 220.495C350.341 223.093 348.908 225.53 346.689 227.413C344.489 229.28 341.955 230.374 339.059 230.52C337.088 230.619 335.113 230.613 333.162 230.236C330.229 229.67 327.728 228.275 325.518 226.29C323.193 224.203 321.447 221.729 320.442 218.772C318.978 214.464 319.273 210.285 321.497 206.273C322.647 204.172 324.281 202.375 326.264 201.032C328.256 199.677 330.447 198.802 332.832 198.555C334.442 198.388 336.079 198.391 337.7 198.448C339.88 198.524 341.902 199.261 343.843 200.218C344.562 200.573 345.263 200.964 345.973 201.337C347.233 201.998 348.369 202.82 349.274 203.927C349.615 204.344 349.936 204.79 350.192 205.263C350.873 206.519 351.648 207.747 352.141 209.077C353.177 211.874 353.246 214.761 352.463 217.647C352.204 218.605 351.87 219.545 351.569 220.495Z" fill="#66CC99"/>
<path d="M277.659 236.213C273.233 246.841 266.111 256.397 256.575 263.467C233.436 280.621 199.64 280.639 176.725 263.054C176.066 262.545 175.415 262.025 174.773 261.494C141.069 233.483 141.396 175.916 182.069 154.485C208.467 140.576 245.554 145.452 266.371 167.216C284.264 185.925 287.111 213.514 277.659 236.213Z" fill="#66CC99"/>
<path d="M221.43 250.356C221.374 252.605 221.324 255.131 221.243 257.656C221.177 259.728 220.901 260.066 218.793 260.011C215.969 259.938 213.147 259.746 210.33 259.535C208.655 259.41 208.233 258.896 208.252 257.148C208.278 254.839 208.36 252.53 208.42 250.094C207.438 249.829 206.625 249.588 205.801 249.391C199.293 247.832 194.538 243.979 191.196 238.265C189.739 235.775 189.314 232.955 188.656 230.22C188.323 228.836 188.891 228.055 190.302 227.617C190.991 227.4 191.71 227.291 192.433 227.295C195.185 227.333 197.936 227.453 200.688 227.514C201.969 227.543 202.593 228.21 202.996 229.392C203.601 231.166 204.289 232.925 205.107 234.611C206.607 237.705 209.373 239.086 212.593 239.527C216.184 240.019 219.823 239.592 222.983 237.928C230.543 233.949 231.475 226.565 225.745 220.487C223.285 217.878 219.933 216.489 216.616 215.168C210.63 212.783 204.591 210.47 199.207 206.856C197.227 205.521 195.405 203.968 193.774 202.225C190.091 198.286 189.297 193.538 190.727 188.457C193.009 180.349 198.372 175.356 206.529 173.344C207.579 173.085 208.647 172.9 209.934 172.634C210.002 171.529 210.091 170.401 210.135 169.271C210.19 167.896 210.195 166.518 210.244 165.143C210.298 163.626 210.686 163.037 212.093 163.015C215.129 162.967 218.168 163.066 221.205 163.144C222.407 163.175 223.056 163.946 223.221 165.056C223.401 166.27 223.509 167.502 223.54 168.729C223.575 170.096 223.487 171.466 223.451 172.912C224.484 173.239 225.29 173.505 226.103 173.749C235.738 176.642 239.494 183.773 241.931 192.822C242.297 194.182 241.73 195.065 240.36 195.463C239.611 195.681 238.791 195.759 238.008 195.738C236.126 195.687 234.247 195.498 232.364 195.444C230.809 195.399 229.876 194.784 229.288 193.247C228.729 191.786 227.813 190.443 226.938 189.125C222.849 182.968 212.53 183.661 208.094 188.493C205.897 190.886 205.686 194.487 207.704 197.062C209.048 198.791 210.855 200.104 212.915 200.847C215.224 201.686 217.593 202.358 219.921 203.146C223.073 204.213 226.272 205.171 229.342 206.439C238.197 210.097 244.368 219.377 243.854 228.458C243.627 232.463 242.438 236.153 239.981 239.345C237.471 242.606 234.413 245.254 230.569 246.843C227.708 248.024 224.788 249.071 221.43 250.356Z" fill="white"/>
<path d="M412.549 224.486C408.776 183.469 416.591 167.676 409.437 128.043C408.578 124.516 399.116 121.488 391.417 121.641C386.014 121.748 380.532 121.953 375.129 122.41C270.052 131.319 165.011 140.751 59.8479 148.525C46.7849 149.805 19.2969 124.998 16.6659 112.419C7.1299 66.8358 7.5479 154.114 7.2439 169.504C10.7979 199.847 13.0679 230.313 15.6619 260.751C16.2109 267.273 16.7599 273.795 17.3129 280.316C17.3389 283.045 19.2449 285.19 21.9939 285.625C26.7319 286.66 33.9249 285.869 39.4269 285.491C49.6699 284.744 59.9139 284.019 70.1559 283.258C117.255 279.644 164.32 275.596 211.403 271.764L211.4 271.729C260.781 267.842 310.089 263.12 359.419 258.672C374.838 257.267 390.289 255.922 405.65 254.006C410.574 253.645 415.241 252.351 412.549 224.486Z" fill="#2B8958"/>
<path d="M410.551 236.602C410.127 232.653 409.698 228.705 409.268 224.757L409.265 224.728C407.649 209.91 406.007 195.095 404.51 180.267C401.569 151.124 398.831 121.963 395.878 92.8208L395.708 91.1458L395.542 89.5118C394.869 82.9108 393.729 76.3458 392.447 69.8088C391.482 64.8928 389.442 63.7798 381.825 63.7388C378.474 63.7208 375.095 63.7548 371.723 63.8958C369.719 63.9798 367.717 64.1008 365.725 64.2708L365.709 64.2718C363.634 64.4488 361.56 64.6288 359.486 64.8108L358.323 64.9128C356.302 65.0898 354.281 65.2688 352.26 65.4478L351.356 65.5288C333.737 67.0988 316.126 68.7528 298.501 70.2548C269.782 72.7028 241.047 74.9658 212.324 77.3738C193.172 78.9798 174.028 80.6768 154.885 82.3788C148.355 82.9598 141.848 83.7988 135.315 84.3138C121.533 85.4008 107.742 86.3758 93.952 87.3508C82.501 88.1598 71.036 88.7788 59.596 89.7098C57.88 89.8498 56.163 89.9918 54.447 90.1358H54.444C51.847 90.3538 49.251 90.5778 46.655 90.8098L46.345 90.8378C45.119 90.9478 43.893 91.0588 42.668 91.1718L42.24 91.2118C41.004 91.3268 39.768 91.4428 38.532 91.5608L38.379 91.5758C37.168 91.6918 35.957 91.8108 34.746 91.9318L34.4 91.9658C33.22 92.0838 32.04 92.2048 30.86 92.3268L30.233 92.3918C29.073 92.5128 27.913 92.6358 26.753 92.7618L26.194 92.8228C24.984 92.9548 23.773 93.0888 22.564 93.2268C20.282 93.4858 18.016 93.9448 15.774 94.4928C13.533 95.0408 11.317 95.6768 9.13498 96.2918C7.73498 96.6868 6.56198 97.1878 5.62898 97.7938C5.5449 97.8482 5.46188 97.9042 5.37998 97.9618C4.92226 98.2809 4.50635 98.6562 4.14198 99.0788C3.91498 99.3478 3.72198 99.6308 3.56098 99.9278C3.44098 100.151 3.33898 100.381 3.25698 100.62C3.06109 101.197 2.97197 101.805 2.99398 102.415C3.01198 103.042 3.01998 103.67 3.01998 104.298C3.02098 105.555 2.99398 106.814 2.96298 108.073C2.94798 108.703 2.93098 109.332 2.91698 109.961C2.90298 110.59 2.89098 111.219 2.88398 111.848C2.86398 113.734 2.89298 115.616 3.05298 117.487C3.19582 119.154 3.34883 120.82 3.51198 122.486L3.56398 123.019C3.63098 123.709 3.69998 124.399 3.76998 125.088L3.80198 125.399C4.77298 134.948 5.94098 144.481 6.76598 154.042C9.35998 184.097 11.865 214.159 14.377 244.22L14.379 244.24C15.135 253.29 15.892 262.339 16.653 271.389C16.707 272.033 16.784 272.633 16.887 273.191C16.921 273.377 16.959 273.558 16.999 273.735C17.121 274.265 17.271 274.754 17.453 275.204C17.635 275.654 17.85 276.065 18.101 276.44C18.2255 276.626 18.3604 276.805 18.505 276.976C18.9492 277.498 19.4821 277.938 20.079 278.275C20.286 278.395 20.504 278.507 20.734 278.611C20.964 278.715 21.206 278.812 21.46 278.902C21.799 279.021 22.159 279.128 22.543 279.223C22.639 279.247 22.736 279.269 22.835 279.292C24.911 279.756 27.631 279.891 31.177 279.8C31.527 279.791 31.878 279.77 32.229 279.745C32.58 279.72 32.931 279.691 33.282 279.666L33.329 279.663C34.66 279.569 35.992 279.476 37.324 279.384L38.716 279.288L41.351 279.106L43.054 278.989L44.8 278.87C52.888 278.318 60.976 277.775 69.062 277.2H69.064C75.138 276.768 81.211 276.319 87.281 275.834C127.701 272.604 168.11 269.219 208.524 265.898L208.52 265.85C222.772 264.679 237.037 263.63 251.273 262.313C285.732 259.125 320.185 255.885 354.633 252.604L354.678 252.6C361.04 251.994 367.401 251.387 373.763 250.778C377.084 250.459 380.401 250.112 383.716 249.735C389.38 249.087 395.037 248.372 400.684 247.59L400.792 247.574L401.184 247.512L401.216 247.507L401.629 247.436L401.722 247.419L402.086 247.351L402.127 247.343C402.401 247.291 402.674 247.233 402.946 247.169C403.218 247.105 403.489 247.038 403.759 246.968L403.786 246.961C403.912 246.927 404.037 246.892 404.16 246.856L404.165 246.855C404.286 246.82 404.405 246.784 404.522 246.747L404.54 246.741C404.779 246.666 405.011 246.587 405.235 246.505L405.244 246.502C405.47 246.419 405.687 246.333 405.897 246.244L405.9 246.243C409.033 244.908 410.453 242.811 410.702 239.698C410.787 238.662 410.661 237.629 410.551 236.602Z" fill="#66CC99"/>
<path d="M354.06 221.884C355.94 217.426 358.693 213.631 362.381 210.498C366.036 207.393 370.186 205.195 374.855 204.199C378.006 203.527 381.247 203.185 384.467 202.952C385.113 202.906 385.761 202.889 386.409 202.899C385.473 194.487 384.549 186.074 383.686 177.655C381.436 155.69 379.336 133.711 377.105 111.744C374.585 112.003 372.053 112.098 369.508 111.885C363.582 111.388 358.337 109.158 353.539 105.7C348.494 102.063 344.512 97.5384 341.895 91.8994C340.497 88.8874 339.573 85.8604 339.135 82.8184C322.591 84.2764 306.054 85.8204 289.506 87.2264C263.813 89.4104 238.107 91.4414 212.411 93.5924C195.277 95.0264 178.15 96.5364 161.024 98.0504C155.182 98.5674 149.359 99.2974 143.514 99.7594C131.184 100.734 118.848 101.617 106.512 102.5C96.2679 103.233 86.0139 103.808 75.7789 104.642C69.3921 105.158 63.009 105.718 56.6299 106.32C56.6535 108.064 56.526 109.806 56.2489 111.527C55.9369 113.483 55.4759 115.415 55.0829 117.358C53.2039 122.762 50.8859 127.89 46.8949 132.088C42.9379 136.251 38.1559 138.955 32.4549 139.859C30.4279 140.18 28.3929 140.444 26.3489 140.576C26.9979 146.434 27.6759 152.289 28.1849 158.159C30.3089 182.674 32.3549 207.195 34.4069 231.715C34.8329 231.68 35.2579 231.647 35.6829 231.616C40.0139 231.303 44.1719 232.331 48.2169 233.812C49.7159 234.361 51.1859 234.987 52.6709 235.573C55.3039 236.613 57.7289 237.998 59.7549 239.996C60.5189 240.75 61.2489 241.563 61.8569 242.445C63.4709 244.787 65.2679 247.052 66.5249 249.58C68.2525 253.033 69.2157 256.818 69.3489 260.676C79.4039 259.981 89.4579 259.276 99.5049 258.471C135.665 255.575 171.816 252.552 207.97 249.58L207.967 249.54C220.717 248.492 233.478 247.545 246.215 246.377C281.39 243.151 316.558 239.867 351.721 236.541C351.231 231.69 351.986 226.801 354.06 221.884Z" fill="#339966"/>
<path d="M103.023 185.871C102.079 188.586 100.915 191.162 98.91 193.271C96.922 195.362 94.52 196.721 91.656 197.175C89.707 197.484 87.7429 197.688 85.7629 197.522C82.7859 197.272 80.1509 196.152 77.7409 194.415C75.2069 192.588 73.2059 190.314 71.8909 187.482C69.9759 183.355 69.8229 179.169 71.6049 174.942C72.5239 172.73 73.9568 170.769 75.7849 169.222C77.6209 167.662 79.7059 166.558 82.0509 166.058C83.6339 165.72 85.262 165.548 86.88 165.432C89.056 165.275 91.1449 165.791 93.1769 166.535C93.9299 166.811 94.6689 167.125 95.4149 167.42C96.7379 167.942 97.9559 168.638 98.9739 169.642C99.3579 170.021 99.7249 170.429 100.03 170.872C100.841 172.048 101.743 173.187 102.375 174.456C103.703 177.126 104.08 179.989 103.61 182.942C103.452 183.925 103.22 184.895 103.023 185.871ZM341.484 166.272C340.54 168.987 339.376 171.563 337.371 173.672C335.383 175.763 332.981 177.122 330.117 177.576C328.168 177.885 326.204 178.089 324.224 177.923C321.247 177.673 318.612 176.553 316.202 174.816C313.668 172.989 311.667 170.715 310.352 167.883C308.436 163.756 308.284 159.57 310.066 155.343C310.985 153.131 312.418 151.17 314.246 149.623C316.082 148.063 318.167 146.959 320.512 146.459C322.095 146.121 323.723 145.949 325.341 145.833C327.517 145.676 329.606 146.192 331.638 146.936C332.391 147.212 333.13 147.526 333.876 147.821C335.199 148.343 336.417 149.039 337.435 150.043C337.819 150.422 338.186 150.83 338.491 151.273C339.302 152.449 340.204 153.588 340.836 154.857C342.164 157.527 342.541 160.39 342.071 163.343C341.913 164.325 341.682 165.296 341.484 166.272Z" fill="#66CC99"/>
<path d="M269.676 189.796C266.411 200.836 260.35 211.098 251.624 219.146C230.45 238.674 196.849 242.301 172.187 227.265C171.477 226.829 170.774 226.382 170.079 225.923C133.576 201.672 127.752 144.399 165.903 118.747C190.664 102.098 228.06 102.985 251.082 122.4C270.872 139.09 276.649 166.218 269.676 189.796Z" fill="#66CC99"/>
<path d="M215.279 209.863C215.463 212.105 215.683 214.622 215.873 217.141C216.029 219.208 215.79 219.573 213.688 219.744C210.873 219.973 208.046 220.083 205.222 220.175C203.543 220.229 203.069 219.763 202.901 218.024C202.68 215.725 202.515 213.421 202.315 210.993C201.31 210.834 200.476 210.682 199.636 210.574C192.998 209.719 187.86 206.396 183.926 201.071C182.212 198.75 181.488 195.992 180.541 193.344C180.062 192.004 180.544 191.166 181.9 190.58C182.562 190.291 183.265 190.106 183.984 190.032C186.724 189.775 189.472 189.601 192.215 189.368C193.492 189.26 194.184 189.857 194.71 190.988C195.501 192.687 196.373 194.363 197.366 195.951C199.188 198.867 202.086 199.944 205.335 200.039C208.958 200.145 212.53 199.331 215.495 197.34C222.586 192.576 222.725 185.135 216.379 179.704C213.655 177.373 210.173 176.35 206.734 175.39C200.527 173.658 194.276 172.003 188.537 168.985C186.426 167.87 184.448 166.521 182.641 164.961C178.558 161.438 177.262 156.802 178.141 151.597C179.544 143.292 184.343 137.755 192.238 134.882C193.254 134.512 194.297 134.215 195.548 133.812C195.497 132.707 195.465 131.575 195.389 130.447C195.296 129.074 195.155 127.704 195.056 126.331C194.948 124.817 195.271 124.19 196.667 124.018C199.681 123.646 202.713 123.42 205.741 123.173C206.94 123.075 207.667 123.773 207.95 124.859C208.26 126.05 208.497 127.258 208.66 128.477C208.84 129.832 208.9 131.204 209.018 132.646C210.08 132.86 210.91 133.039 211.744 133.195C221.633 135.043 226.129 141.731 229.518 150.468C230.027 151.781 229.557 152.719 228.238 153.261C227.516 153.558 226.71 153.723 225.929 153.785C224.052 153.935 222.164 153.948 220.286 154.096C218.735 154.218 217.742 153.706 216.993 152.24C216.281 150.847 215.227 149.61 214.216 148.393C209.493 142.708 199.307 144.499 195.413 149.778C193.485 152.392 193.659 155.994 195.94 158.339C197.46 159.916 199.398 161.028 201.526 161.545C203.911 162.132 206.338 162.548 208.737 163.083C211.984 163.807 215.268 164.418 218.456 165.351C227.651 168.042 234.778 176.61 235.237 185.694C235.439 189.7 234.651 193.496 232.549 196.932C230.402 200.442 227.644 203.402 223.992 205.392C221.272 206.873 218.48 208.227 215.279 209.863Z" fill="white"/>
<path d="M413.53 179.26C403.025 140.364 396.703 100.335 384.887 61.8426C383.619 58.4436 381.549 57.9316 374.09 58.9816C368.855 59.7186 363.557 60.5606 358.365 61.6446C257.402 82.7426 156.538 104.356 55.352 124.339C42.821 127.133 13.077 105.724 8.97596 93.5496C-5.88504 49.4316 5.24196 135.987 6.83596 151.294C14.014 180.989 19.961 210.955 26.22 240.855C27.554 247.262 28.889 253.67 30.227 260.076C30.588 262.781 32.702 264.687 35.425 264.798C40.154 265.273 47.043 263.648 52.341 262.631C62.198 260.695 72.059 258.781 81.913 256.831C127.215 247.75 172.43 238.243 217.689 228.948L217.682 228.914C265.167 219.296 312.477 208.859 359.844 198.69C374.647 195.497 389.489 192.36 404.173 188.666C408.91 187.733 415.744 184.768 413.53 179.26Z" fill="#2B8958"/>
<path d="M421.165 168.42C420.266 164.552 419.363 160.684 418.457 156.817L418.45 156.789C415.052 142.276 411.628 127.768 408.347 113.23C401.899 84.6575 395.651 56.0425 389.192 27.4725L388.821 25.8305L388.459 24.2285C386.992 17.7575 385.066 11.3785 383.001 5.04546C381.448 0.282463 379.288 -0.575535 371.722 0.306465C368.394 0.694465 365.044 1.13746 361.713 1.68546C359.736 2.00861 357.766 2.37503 355.805 2.78446L355.79 2.78747C353.752 3.21447 351.715 3.64446 349.678 4.07546L348.536 4.31747C346.551 4.73847 344.566 5.15947 342.582 5.58247L341.695 5.77147C324.396 9.46347 307.114 13.2365 289.801 16.8625C261.59 22.7695 233.34 28.4945 205.12 34.3625C186.304 38.2745 167.506 42.2775 148.71 46.2845C142.298 47.6515 135.94 49.2725 129.518 50.5745C115.969 53.3215 102.397 55.9595 88.827 58.5965C77.558 60.7865 66.253 62.7885 55.009 65.0985C53.322 65.4455 51.635 65.7935 49.949 66.1445L49.946 66.1455C47.395 66.6765 44.845 67.2135 42.296 67.7575L41.992 67.8225C40.788 68.0795 39.585 68.3385 38.382 68.5995L37.962 68.6905C36.7488 68.9533 35.5361 69.2186 34.324 69.4865L34.174 69.5195C32.986 69.7815 31.798 70.0465 30.611 70.3125L30.272 70.3885C29.115 70.6485 27.958 70.9115 26.802 71.1755L26.187 71.3165C25.05 71.5775 23.913 71.8405 22.777 72.1055L22.229 72.2335C21.043 72.5115 19.858 72.7905 18.674 73.0735C16.44 73.6075 14.246 74.3375 12.088 75.1525C9.92998 75.9675 7.80698 76.8675 5.71498 77.7425C4.37298 78.3035 3.26898 78.9425 2.41598 79.6575C2.33933 79.7216 2.26398 79.7873 2.18998 79.8545C1.77374 80.2264 1.40617 80.6494 1.09598 81.1135C0.90398 81.4085 0.745981 81.7125 0.622981 82.0265C0.531173 82.2613 0.458272 82.503 0.404978 82.7495C0.280095 83.3461 0.265522 83.9606 0.361979 84.5625C0.455979 85.1825 0.538981 85.8055 0.615981 86.4285C0.768981 87.6755 0.894978 88.9285 1.01598 90.1825C1.07698 90.8095 1.13698 91.4365 1.19898 92.0625C1.26098 92.6885 1.32598 93.3145 1.39498 93.9395C1.60398 95.8135 1.85998 97.6785 2.24598 99.5165C2.41598 100.325 2.58898 101.134 2.76298 101.942L2.89298 102.537C3.02998 103.166 3.16698 103.794 3.30598 104.423L3.42298 104.946C3.57298 105.623 3.72498 106.299 3.87798 106.975L3.94698 107.28C6.06698 116.641 8.37998 125.963 10.357 135.354C16.571 164.874 22.696 194.411 28.83 223.948L28.834 223.968C30.68 232.86 32.527 241.751 34.378 250.642C34.51 251.275 34.658 251.861 34.829 252.402C34.886 252.582 34.945 252.758 35.006 252.928C35.191 253.439 35.399 253.906 35.634 254.331C35.869 254.756 36.132 255.138 36.427 255.48C36.6706 255.762 36.9401 256.02 37.232 256.251C37.641 256.573 38.099 256.842 38.612 257.061C38.832 257.155 39.062 257.24 39.303 257.315C39.544 257.391 39.796 257.458 40.059 257.516C40.5246 257.619 40.9962 257.693 41.471 257.736C43.588 257.946 46.305 257.75 49.814 257.231C50.16 257.18 50.506 257.116 50.851 257.049C51.196 256.982 51.541 256.91 51.886 256.843L51.932 256.834C53.242 256.58 54.553 256.326 55.863 256.074L57.233 255.81L59.827 255.311L61.503 254.989L63.222 254.659C71.184 253.132 79.147 251.613 87.104 250.064H87.106C93.0839 248.904 99.0566 247.716 105.024 246.502C144.756 238.402 184.458 230.15 224.172 221.96L224.162 221.912C238.167 219.024 252.201 216.255 266.173 213.225C306.251 204.53 346.315 195.77 386.365 186.944C389.623 186.228 392.874 185.481 396.118 184.703C401.52 183.41 406.908 182.054 412.278 180.633C412.583 180.553 412.887 180.469 413.19 180.38L413.221 180.371L413.622 180.251L413.713 180.223L414.067 180.111L414.107 180.098C414.237 180.056 414.365 180.013 414.492 179.97L414.558 179.947L414.9 179.827L414.936 179.814C415.062 179.769 415.185 179.723 415.307 179.676L415.344 179.662C415.459 179.618 415.572 179.573 415.684 179.528L415.71 179.518C415.831 179.469 415.951 179.419 416.068 179.369L416.072 179.367C416.188 179.317 416.302 179.267 416.413 179.217L416.43 179.209C416.659 179.105 416.879 178.999 417.091 178.891L417.099 178.887C417.313 178.778 417.519 178.666 417.716 178.552L417.719 178.55C420.668 176.846 421.823 174.592 421.694 171.471C421.649 170.437 421.398 169.426 421.165 168.42Z" fill="#66CC99"/>
<path d="M363.307 160.651C364.633 155.998 366.907 151.897 370.188 148.341C373.44 144.816 377.294 142.132 381.807 140.578C384.853 139.529 388.03 138.797 391.197 138.176C391.833 138.052 392.474 137.956 393.119 137.888C391.163 129.654 389.244 121.411 387.36 113.16C382.467 91.6291 377.722 70.0661 372.848 48.5311C370.378 49.0931 367.876 49.4941 365.324 49.5901C359.381 49.8141 353.905 48.2361 348.724 45.3841C343.276 42.3851 338.775 38.3741 335.495 33.0941C333.743 30.2741 332.459 27.3801 331.656 24.4141C315.41 27.8641 299.182 31.3981 282.925 34.7991C257.686 40.0781 232.414 45.2061 207.167 50.4521C190.333 53.9501 173.515 57.5221 156.697 61.0991C150.96 62.3191 145.268 63.7491 139.523 64.9151C127.402 67.3761 115.263 69.7461 103.125 72.1161C93.0449 74.0841 82.9359 75.8961 72.8769 77.9631C66.5996 79.2486 60.3311 80.5766 54.0719 81.9471C54.3059 83.6471 54.3889 85.3871 54.3239 87.1621C54.2519 89.1411 54.0279 91.1151 53.8729 93.0911C52.6619 98.6821 50.9819 104.053 47.5289 108.704C44.1049 113.315 39.6859 116.579 34.1359 118.166C32.1629 118.73 30.1739 119.238 28.1619 119.617C29.5159 125.353 30.8969 131.084 32.1129 136.849C37.1899 160.926 42.1889 185.019 47.1949 209.111C47.6129 209.025 48.0319 208.941 48.4499 208.859C52.7119 208.024 56.9629 208.541 61.1569 209.522C62.7109 209.885 64.2459 210.329 65.7909 210.731C68.5309 211.444 71.1049 212.526 73.3579 214.264C74.2079 214.919 75.0309 215.639 75.7409 216.44C77.6269 218.569 79.6839 220.6 81.2389 222.957C83.3719 226.175 84.7863 229.815 85.3859 233.629C95.2829 231.721 105.178 229.805 115.053 227.79C150.597 220.537 186.115 213.16 221.644 205.833L221.636 205.794C234.165 203.21 246.718 200.725 259.22 198.024C293.744 190.561 328.257 183.049 362.759 175.487C361.687 170.728 361.845 165.783 363.307 160.651Z" fill="#339966"/>
<path d="M109.757 155.293C109.149 158.102 108.305 160.8 106.57 163.136C104.85 165.453 102.63 167.092 99.8421 167.889C97.9451 168.432 96.0201 168.872 94.0341 168.947C91.0481 169.059 88.2981 168.267 85.6951 166.834C82.9581 165.327 80.6971 163.313 79.0491 160.66C76.6481 156.795 75.9891 152.658 77.2471 148.247C77.891 145.94 79.0761 143.82 80.7041 142.063C82.3381 140.292 84.2741 138.944 86.5411 138.163C88.0711 137.636 89.6671 137.268 91.2581 136.957C93.3991 136.537 95.5351 136.797 97.6421 137.29C98.4231 137.473 99.1941 137.695 99.9701 137.897C101.346 138.255 102.64 138.799 103.772 139.672C104.199 140.001 104.612 140.363 104.969 140.765C105.916 141.835 106.95 142.855 107.731 144.039C109.373 146.529 110.094 149.325 109.984 152.313C109.948 153.309 109.835 154.301 109.757 155.293ZM344.092 106.968C343.484 109.777 342.64 112.475 340.905 114.811C339.185 117.128 336.965 118.767 334.177 119.564C332.28 120.107 330.355 120.547 328.369 120.622C325.383 120.734 322.633 119.942 320.03 118.509C317.293 117.002 315.032 114.988 313.384 112.335C310.983 108.47 310.324 104.333 311.582 99.9221C312.226 97.6151 313.411 95.4951 315.039 93.7381C316.673 91.9671 318.609 90.6191 320.876 89.8381C322.406 89.3111 324.002 88.9431 325.593 88.6321C327.734 88.2121 329.87 88.4721 331.977 88.9651C332.758 89.1481 333.529 89.3701 334.305 89.5721C335.681 89.9301 336.975 90.4741 338.107 91.3471C338.534 91.6761 338.947 92.0381 339.304 92.4401C340.251 93.5101 341.285 94.5301 342.066 95.7141C343.708 98.2041 344.429 101 344.319 103.988C344.282 104.984 344.17 105.976 344.092 106.968Z" fill="#66CC99"/>
<path d="M275.66 139.013C273.755 150.367 268.982 161.287 261.294 170.332C242.64 192.28 209.725 199.948 183.424 188.008C182.667 187.661 181.915 187.302 181.169 186.931C141.998 167.278 129.284 111.131 164.048 81.049C186.611 61.525 223.839 57.877 249.043 74.363C270.708 88.535 279.727 114.764 275.66 139.013Z" fill="#66CC99"/>
<path d="M224.093 165.52C224.547 167.724 225.071 170.195 225.564 172.673C225.969 174.706 225.776 175.098 223.711 175.521C220.944 176.089 218.152 176.541 215.36 176.973C213.7 177.23 213.173 176.825 212.796 175.119C212.298 172.864 211.855 170.597 211.363 168.21C210.347 168.174 209.5 168.124 208.653 168.118C201.961 168.073 196.457 165.397 191.908 160.587C189.925 158.491 188.873 155.841 187.612 153.326C186.974 152.054 187.351 151.164 188.626 150.418C189.249 150.05 189.924 149.782 190.629 149.621C193.318 149.035 196.025 148.529 198.719 147.966C199.974 147.704 200.732 148.213 201.392 149.273C202.383 150.864 203.452 152.421 204.629 153.878C206.79 156.552 209.797 157.271 213.034 156.972C216.644 156.639 220.091 155.398 222.792 153.062C229.255 147.475 228.491 140.072 221.534 135.449C218.548 133.465 214.968 132.871 211.437 132.335C205.066 131.367 198.661 130.481 192.598 128.18C190.368 127.329 188.241 126.228 186.258 124.899C181.779 121.896 179.931 117.451 180.173 112.178C180.56 103.764 184.653 97.6866 192.143 93.8786C193.107 93.3886 194.106 92.9666 195.299 92.4156C195.115 91.3246 194.946 90.2056 194.734 89.0946C194.476 87.7426 194.169 86.3996 193.905 85.0486C193.614 83.5596 193.859 82.8976 195.224 82.5576C198.17 81.8226 201.153 81.2326 204.129 80.6196C205.307 80.3776 206.114 80.9816 206.526 82.0256C206.976 83.1676 207.36 84.3426 207.668 85.5306C208.011 86.8536 208.236 88.2076 208.529 89.6256C209.609 89.7096 210.454 89.7866 211.302 89.8406C221.342 90.4776 226.615 96.5726 231.037 104.835C231.702 106.077 231.349 107.065 230.105 107.763C229.425 108.145 228.644 108.406 227.876 108.563C226.031 108.939 224.158 109.181 222.312 109.554C220.787 109.862 219.739 109.475 218.818 108.111C217.943 106.815 216.747 105.714 215.596 104.629C210.219 99.5576 200.325 102.569 197.099 108.28C195.501 111.108 196.111 114.663 198.659 116.714C200.359 118.095 202.417 118.964 204.592 119.221C207.031 119.515 209.49 119.634 211.936 119.874C215.247 120.199 218.581 120.408 221.858 120.948C231.311 122.506 239.423 130.148 240.978 139.109C241.664 143.061 241.341 146.925 239.671 150.59C237.964 154.334 235.585 157.607 232.201 160.024C229.68 161.827 227.072 163.508 224.093 165.52Z" fill="white"/>
</svg>
