<svg xmlns="http://www.w3.org/2000/svg" version="1.1" xmlns:xlink="http://www.w3.org/1999/xlink" xmlns:svgjs="http://svgjs.com/svgjs" width="512" height="512" x="0" y="0" viewBox="0 0 24 24" style="enable-background:new 0 0 512 512" xml:space="preserve"><g><path fill="#1494eb" d="M10.75 4v4A2.748 2.748 0 0 1 8 10.75H4a2.748 2.748 0 0 1-2.6-1.86A2.64 2.64 0 0 1 1.25 8V4A2.748 2.748 0 0 1 4 1.25h4a2.64 2.64 0 0 1 .89.15A2.748 2.748 0 0 1 10.75 4z" data-original="#1494eb"></path><path fill="#ffcb03" d="M22.75 6a4.748 4.748 0 0 1-8.62 2.75A4.7 4.7 0 0 1 13.25 6 4.754 4.754 0 0 1 18 1.25 4.756 4.756 0 0 1 22.75 6z" data-original="#ffcb03"></path><path fill="#46bcfc" d="M8.89 1.4A9 9 0 0 1 1.4 8.89 2.64 2.64 0 0 1 1.25 8V4A2.748 2.748 0 0 1 4 1.25h4a2.64 2.64 0 0 1 .89.15z" data-original="#46bcfc"></path><path fill="#ffd869" d="M20.75 2.13a9.05 9.05 0 0 1-6.62 6.62A4.7 4.7 0 0 1 13.25 6 4.754 4.754 0 0 1 18 1.25a4.7 4.7 0 0 1 2.75.88z" data-original="#ffd869"></path><path fill="#1494eb" d="M22.75 16v4A2.748 2.748 0 0 1 20 22.75h-4A2.748 2.748 0 0 1 13.25 20v-4A2.748 2.748 0 0 1 16 13.25h4a2.611 2.611 0 0 1 .69.09A2.737 2.737 0 0 1 22.75 16zM10.75 16v4A2.748 2.748 0 0 1 8 22.75H4A2.748 2.748 0 0 1 1.25 20v-4A2.748 2.748 0 0 1 4 13.25h4a2.611 2.611 0 0 1 .69.09A2.737 2.737 0 0 1 10.75 16z" data-original="#1494eb"></path><g fill="#46bcfc"><path d="M8.69 13.34a9 9 0 0 1-7.44 6.57V16A2.748 2.748 0 0 1 4 13.25h4a2.611 2.611 0 0 1 .69.09zM20.69 13.34a9 9 0 0 1-7.44 6.57V16A2.748 2.748 0 0 1 16 13.25h4a2.611 2.611 0 0 1 .69.09z" fill="#46bcfc" data-original="#46bcfc"></path></g></g></svg>