<svg xmlns="http://www.w3.org/2000/svg" version="1.1" xmlns:xlink="http://www.w3.org/1999/xlink" xmlns:svgjs="http://svgjs.com/svgjs" x="0" y="0" viewBox="0 0 64 64" style="enable-background:new 0 0 512 512" xml:space="preserve" class=""><g><g id="Cash_On_Delivery-Cod-Ecommerce-Payment--Shopping" data-name="Cash On Delivery-Cod-Ecommerce-Payment--Shopping"><path d="m3 16v26h40v-16-10z" fill="#d1d3d4" data-original="#d1d3d4"></path><path d="m56 28v8h-6v-10h4a2.006 2.006 0 0 1 2 2z" fill="#e6e7e8" data-original="#e6e7e8"></path><path d="m3 42h40v8h-40z" fill="#ff9811" data-original="#ff9811" class=""></path><path d="m61 39v11h-18v-8-16h7v10h6v.14z" fill="#ff9811" data-original="#ff9811" class=""></path><circle cx="11" cy="50" fill="#57565c" r="4" data-original="#57565c"></circle><circle cx="20" cy="50" fill="#57565c" r="4" data-original="#57565c"></circle><circle cx="53" cy="50" fill="#57565c" r="4" data-original="#57565c"></circle><path d="m57 41h4v4h-4z" fill="#ffc477" data-original="#ffc477"></path><path d="m50 39h4v2h-4z" fill="#ee8700" data-original="#ee8700"></path><path d="m2 54h60v2h-60z" fill="#57565c" data-original="#57565c"></path><g fill="#ff9811"><path d="m20 11h12v2h-12z" fill="#ff9811" data-original="#ff9811" class=""></path><path d="m16 7h12v2h-12z" fill="#ff9811" data-original="#ff9811" class=""></path><path d="m12 7h2v2h-2z" fill="#ff9811" data-original="#ff9811" class=""></path></g><path d="m23 34h-1a3 3 0 0 1 -3-3v-4a3 3 0 0 1 3-3h1a3 3 0 0 1 3 3v4a3 3 0 0 1 -3 3zm-1-8a1 1 0 0 0 -1 1v4a1 1 0 0 0 1 1h1a1 1 0 0 0 1-1v-4a1 1 0 0 0 -1-1z" fill="#ee8700" data-original="#ee8700"></path><path d="m32 34h-3a1 1 0 0 1 -1-1v-8a1 1 0 0 1 1-1h3a3 3 0 0 1 3 3v4a3 3 0 0 1 -3 3zm-2-2h2a1 1 0 0 0 1-1v-4a1 1 0 0 0 -1-1h-2z" fill="#ee8700" data-original="#ee8700"></path><path d="m14 34h-1a3 3 0 0 1 -3-3v-4a3 3 0 0 1 3-3h1a3 3 0 0 1 3 3h-2a1 1 0 0 0 -1-1h-1a1 1 0 0 0 -1 1v4a1 1 0 0 0 1 1h1a1 1 0 0 0 1-1h2a3 3 0 0 1 -3 3z" fill="#ee8700" data-original="#ee8700"></path><path d="m10 49h2v2h-2z" fill="#3e3d42" data-original="#3e3d42"></path><path d="m19 49h2v2h-2z" fill="#3e3d42" data-original="#3e3d42"></path><path d="m52 49h2v2h-2z" fill="#3e3d42" data-original="#3e3d42"></path></g></g></svg>