<svg width="414" height="414" viewBox="0 0 414 414" fill="none" xmlns="http://www.w3.org/2000/svg">
<path fill-rule="evenodd" clip-rule="evenodd" d="M158.917 272.15L137.208 250.421L250.565 137.064L272.273 158.773L158.917 272.15ZM264.716 264.511H233.996L233.833 233.791H264.716V264.511ZM175.567 144.642V175.362H144.847L144.724 144.642H175.567ZM402.506 198.566C383.667 184.255 368.969 165.195 359.915 143.338C350.861 121.481 347.777 97.6108 350.978 74.1702L352.821 60.7968L339.427 62.64C315.986 65.828 292.118 62.7357 270.262 53.6791C248.407 44.6225 229.348 29.9262 215.032 11.0918L206.881 0.339844L198.709 11.0918C184.398 29.9311 165.339 44.6309 143.482 53.688C121.626 62.7451 97.756 65.8345 74.3138 62.64L60.9404 60.7968L62.7836 74.1702C65.9782 97.6104 62.891 121.478 53.8377 143.334C44.7845 165.19 30.0898 184.25 11.2559 198.566L0.503906 206.717L11.2559 214.888C30.0946 229.199 44.7929 248.259 53.8467 270.116C62.9005 291.973 65.9846 315.843 62.7836 339.284L60.9404 352.657L74.3138 350.814C97.753 347.635 121.616 350.729 143.469 359.781C165.323 368.833 184.384 383.519 198.709 402.342L206.901 413.094L215.032 402.342C229.36 383.522 248.422 368.839 270.274 359.787C292.127 350.735 315.989 347.639 339.427 350.814L352.821 352.657L350.978 339.284C347.775 315.843 350.858 291.972 359.912 270.115C368.966 248.257 383.665 229.198 402.506 214.888L413.258 206.696L402.506 198.566Z" fill="url(#paint0_linear_1524_4)"/>
<defs>
<linearGradient id="paint0_linear_1524_4" x1="206.881" y1="0.339844" x2="206.881" y2="413.094" gradientUnits="userSpaceOnUse">
<stop stop-color="#8830F7"/>
<stop offset="0.99807" stop-color="#D3B3FF"/>
</linearGradient>
</defs>
</svg>
