<svg xmlns="http://www.w3.org/2000/svg" version="1.1" xmlns:xlink="http://www.w3.org/1999/xlink" xmlns:svgjs="http://svgjs.com/svgjs" width="512" height="512" x="0" y="0" viewBox="0 0 68 68" style="enable-background:new 0 0 512 512" xml:space="preserve" class=""><g><path fill="#e9e9ff" d="M66 14.918v44.061a4.08 4.08 0 0 1-4.083 4.083H6.083A4.08 4.08 0 0 1 2 58.98V14.918z" data-original="#e9e9ff" class=""></path><path fill="#ed524e" d="M66 14.914V9.032a4.08 4.08 0 0 0-4.083-4.083L6.083 4.938A4.088 4.088 0 0 0 2 9.02v5.894z" data-original="#ed524e" class=""></path><g fill="#e9e9ff"><path d="M16.538 9.926c0 .983-.787 1.77-1.77 1.77a1.764 1.764 0 0 1-1.772-1.77c0-.984.787-1.771 1.771-1.771.984 0 1.771.787 1.771 1.77zM10.29 9.926c0 .983-.799 1.77-1.77 1.77a1.774 1.774 0 0 1-1.784-1.77c0-.984.8-1.771 1.784-1.771.971 0 1.77.787 1.77 1.77zM22.798 9.926c0 .983-.8 1.77-1.784 1.77a1.771 1.771 0 0 1 0-3.541c.984 0 1.784.787 1.784 1.77zM37.838 8.65a1.276 1.276 0 0 0 0 2.552h22.14c.71 0 1.286-.567 1.286-1.276 0-.71-.576-1.276-1.285-1.276z" fill="#e9e9ff" data-original="#e9e9ff" class=""></path></g><path fill="#5382ff" d="M37.045 56.595h.016c-.149.031-.298.055-.44.078.142-.023.283-.055.424-.078z" data-original="#5382ff"></path><g fill="#fdc72e"><path d="M43.292 37.352c-1.09.141-2.273.04-3.206.62-.572.36-.972.924-1.465 1.379-.768.698-1.764 1.09-2.744 1.442-1.254.447-2.54.83-3.84 1.152-1.16.29-2.383.557-3.332 1.302-.846.681-1.395 1.716-2.28 2.343-1.035.73-2.564.98-2.948 2.171a1.702 1.702 0 0 0-.055.839c.189 1.074 1.27 2.085 1.545 3.237.18.8-.024 1.623-.251 2.414a17.442 17.442 0 0 1-3.896-3.214c-.36-.392-.713-.807-1.035-1.23-2.304-2.987-3.652-6.749-3.652-10.817 0-3.245.862-6.286 2.375-8.904a17.91 17.91 0 0 1 4.523-5.181c.595.416 1.34.525 2.03.752.697.22 1.418.65 1.606 1.349.22.878-.439 1.873.008 2.649.4.698 1.388.698 2.187.603 1.772-.203 3.55-.4 5.338-.603 1.246-.141 2.657-.235 3.598.603.69.604.964 1.584 1.661 2.187.627.557 1.513.714 2.344.776.839.07 1.709.07 2.477.384.784.314 1.473 1.05 1.403 1.897-.078 1.082-1.309 1.709-2.39 1.85zM51.844 39.72a17.723 17.723 0 0 1-1.717 6.96 17.845 17.845 0 0 1-5.596 6.74 8.905 8.905 0 0 1-.98-.517c-.494-.29-.917-.611-1.23-.94-1.035-1.074-2.517-3.308-1.27-4.147 1.38-.894 3.362-1.082 3.268-2.735-.047-.777-.439-1.529-.447-2.32-.008-.784.674-1.686 1.419-1.435.33.11.549.408.854.572.627.337 1.427.016 1.968-.454.548-.463.964-1.066 1.575-1.443.643-.4 1.42-.454 2.156-.282z" fill="#fdc72e" data-original="#fdc72e"></path></g><path fill="#70c1f9" d="M51.867 38.99c0 .243-.007.486-.016.73-.736-.173-1.52-.118-2.163.281-.611.377-1.027.98-1.575 1.443-.541.47-1.34.791-1.968.454-.305-.164-.525-.462-.854-.572-.745-.251-1.427.65-1.419 1.435.008.791.4 1.543.447 2.32.094 1.653-1.889 1.841-3.268 2.735-1.247.839.235 3.073 1.27 4.146.313.33.736.651 1.23.941.306.188.635.36.98.517-.188.134-.377.267-.565.392a9.148 9.148 0 0 1-.58.377c-.196.133-.392.242-.588.352-.203.118-.407.228-.61.33-.205.11-.416.211-.62.305-.447.212-.901.408-1.364.572-.157.063-.321.118-.486.173a15.695 15.695 0 0 1-2.618.666c-.023.008-.04.016-.055.008-.29.055-.572.102-.862.133-.415.055-.83.086-1.254.102a11.91 11.91 0 0 1-.925.031c-2.422 0-4.71-.485-6.82-1.371a17.267 17.267 0 0 1-2.468-1.239c.227-.791.43-1.615.25-2.414-.274-1.152-1.355-2.163-1.544-3.237a1.702 1.702 0 0 1 .055-.839c.384-1.191 1.913-1.442 2.947-2.171.886-.627 1.435-1.662 2.281-2.343.949-.745 2.172-1.012 3.332-1.302a40.219 40.219 0 0 0 3.84-1.152c.98-.353 1.976-.744 2.744-1.442.493-.455.893-1.02 1.465-1.38.933-.58 2.117-.478 3.206-.62 1.082-.14 2.313-.767 2.39-1.849.071-.846-.618-1.583-1.402-1.897-.768-.313-1.638-.313-2.477-.384-.83-.062-1.717-.22-2.344-.776-.697-.603-.972-1.583-1.661-2.187-.941-.838-2.352-.744-3.598-.603-1.787.204-3.566.4-5.338.603-.8.095-1.787.095-2.187-.603-.447-.776.212-1.771-.008-2.65-.188-.697-.909-1.128-1.607-1.348-.69-.227-1.434-.336-2.03-.752.479-.384.98-.737 1.49-1.058a17.829 17.829 0 0 1 9.484-2.728c.455 0 .94.016 1.41.063 6.287.486 11.688 4.248 14.447 9.586a17.616 17.616 0 0 1 2.006 8.222z" data-original="#70c1f9"></path><path fill="#ffe386" d="M51.867 38.99c0 .243-.007.486-.016.73h-.007c.016-.244.023-.487.023-.73z" data-original="#ffe386"></path><path fill="#70c1f9" d="M25.037 37.838c-.462.517-1.097.839-1.662 1.254-1.763 1.325-2.657 3.715-2.202 5.87.086.393.211.777.321 1.169.079.274.157.549.204.83.125.683.086 1.427-.321 1.992-.377.517-.957.752-1.592.854-2.304-2.987-3.652-6.749-3.652-10.817 0-3.245.862-6.286 2.375-8.904.345.533.588 1.191.729 1.858.196.9.211 1.818.07 2.492-.156.745-.446 1.623.04 2.219.352.446 1.034.517 1.575.336.556-.172 1.003-.548 1.474-.893.446-.321.932-.635 1.48-.721.557-.094 1.177.086 1.482.548.385.588.134 1.395-.321 1.913z" data-original="#70c1f9"></path><path fill="#70c1f9" d="M51.867 38.99c0 .243-.007.486-.016.73-.736-.173-1.52-.118-2.163.281-.611.377-1.027.98-1.575 1.443-.541.47-1.34.791-1.968.454-.305-.164-.525-.462-.854-.572-.745-.251-1.427.65-1.419 1.435.008.791.4 1.543.447 2.32.094 1.653-1.889 1.841-3.268 2.735-1.247.839.235 3.073 1.27 4.146.313.33.736.651 1.23.941.306.188.635.36.98.517-.188.134-.377.267-.565.392a9.148 9.148 0 0 1-.58.377c-.196.133-.392.242-.588.352-.203.118-.407.228-.61.33-.205.11-.416.211-.62.305-.447.212-.901.408-1.364.572-.157.063-.321.118-.486.173a15.695 15.695 0 0 1-2.618.666c-.023.008-.04.016-.055.008-.29.055-.572.102-.862.133-.415.055-.83.086-1.254.102a11.91 11.91 0 0 1-.925.031c-2.422 0-4.71-.485-6.82-1.371a17.267 17.267 0 0 1-2.468-1.239c.227-.791.43-1.615.25-2.414-.274-1.152-1.355-2.163-1.544-3.237a1.702 1.702 0 0 1 .055-.839c.384-1.191 1.913-1.442 2.947-2.171.886-.627 1.435-1.662 2.281-2.343.949-.745 2.172-1.012 3.332-1.302a40.219 40.219 0 0 0 3.84-1.152c.98-.353 1.976-.744 2.744-1.442.493-.455.893-1.02 1.465-1.38.933-.58 2.117-.478 3.206-.62 1.082-.14 2.313-.767 2.39-1.849.071-.846-.618-1.583-1.402-1.897-.768-.313-1.638-.313-2.477-.384-.83-.062-1.717-.22-2.344-.776-.697-.603-.972-1.583-1.661-2.187-.941-.838-2.352-.744-3.598-.603-1.787.204-3.566.4-5.338.603-.8.095-1.787.095-2.187-.603-.447-.776.212-1.771-.008-2.65-.188-.697-.909-1.128-1.607-1.348-.69-.227-1.434-.336-2.03-.752.479-.384.98-.737 1.49-1.058a17.829 17.829 0 0 1 9.484-2.728c.455 0 .94.016 1.41.063 6.287.486 11.688 4.248 14.447 9.586a17.616 17.616 0 0 1 2.006 8.222z" data-original="#70c1f9"></path><path fill="#ffffff" d="M54.484 35.328v7.324c0 .537-.424.96-.96.96H14.476a.953.953 0 0 1-.96-.96v-7.324c0-.537.424-.96.96-.96h39.048c.536 0 .96.423.96.96z" data-original="#ffffff" class=""></path><path fill="#ed524e" d="M22.605 34.367h-8.129a.953.953 0 0 0-.96.961v7.324c0 .537.424.96.96.96h8.129z" data-original="#ed524e" class=""></path><path fill="#e9e9ff" d="M16.63 40.42a2.452 2.452 0 0 1 .006-3.463 2.452 2.452 0 0 1 3.464-.007 2.457 2.457 0 0 1 0 3.47 2.457 2.457 0 0 1-3.47 0zm2.699-2.699a1.36 1.36 0 0 0-1.921.007 1.36 1.36 0 0 0-.007 1.921 1.365 1.365 0 0 0 1.928 0 1.365 1.365 0 0 0 0-1.928z" data-original="#e9e9ff" class=""></path><path fill="#e9e9ff" d="M15.383 41.664a.545.545 0 0 1 0-.771l1.245-1.245a.545.545 0 1 1 .772.771l-1.245 1.245a.545.545 0 0 1-.772 0z" data-original="#e9e9ff" class=""></path><g fill="#4f5d99"><path d="M25.382 41.002a.494.494 0 0 1-.179-.243l-1.151-3.375a.436.436 0 0 1-.025-.137c0-.103.035-.19.106-.26a.352.352 0 0 1 .26-.105c.075 0 .144.02.206.06a.3.3 0 0 1 .126.159l.949 3.122.94-3.05a.407.407 0 0 1 .15-.21.406.406 0 0 1 .248-.081.408.408 0 0 1 .397.292l.941 3.05.95-3.123a.298.298 0 0 1 .125-.158.372.372 0 0 1 .207-.061c.102 0 .189.035.26.105.07.07.105.157.105.26 0 .043-.009.089-.025.137l-1.151 3.375a.497.497 0 0 1-.763.243.542.542 0 0 1-.186-.252l-.86-2.684-.86 2.684a.542.542 0 0 1-.186.252.474.474 0 0 1-.292.097.474.474 0 0 1-.292-.097zM31.805 41.002a.494.494 0 0 1-.178-.243l-1.152-3.375a.436.436 0 0 1-.024-.137c0-.103.035-.19.105-.26a.352.352 0 0 1 .26-.105c.075 0 .144.02.207.06a.3.3 0 0 1 .125.159l.95 3.122.94-3.05a.407.407 0 0 1 .15-.21.406.406 0 0 1 .247-.081.408.408 0 0 1 .397.292l.942 3.05.949-3.123a.298.298 0 0 1 .125-.158.372.372 0 0 1 .207-.061c.103 0 .19.035.26.105.07.07.105.157.105.26 0 .043-.008.089-.024.137l-1.152 3.375a.497.497 0 0 1-.762.243.542.542 0 0 1-.187-.252l-.86-2.684-.86 2.684c-.037.103-.1.187-.186.252s-.184.097-.292.097a.474.474 0 0 1-.292-.097zM38.229 41.002a.494.494 0 0 1-.179-.243L36.9 37.384a.436.436 0 0 1-.025-.137c0-.103.035-.19.106-.26a.352.352 0 0 1 .26-.105c.075 0 .144.02.206.06a.3.3 0 0 1 .126.159l.949 3.122.94-3.05a.407.407 0 0 1 .15-.21.406.406 0 0 1 .248-.081.408.408 0 0 1 .397.292l.941 3.05.95-3.123a.298.298 0 0 1 .125-.158.372.372 0 0 1 .207-.061c.102 0 .189.035.26.105.07.07.105.157.105.26 0 .043-.009.089-.025.137l-1.151 3.375a.497.497 0 0 1-.763.243.542.542 0 0 1-.186-.252l-.86-2.684-.86 2.684c-.038.103-.1.187-.186.252s-.184.097-.292.097-.206-.032-.292-.097z" fill="#4f5d99" data-original="#4f5d99"></path></g><path fill="#70c1f9" d="M18.367 19.363v1.006a.231.231 0 0 1-.229.229H5.918a.231.231 0 0 1-.23-.23v-1.005c0-.125.105-.23.23-.23h12.22c.125 0 .23.105.23.23z" data-original="#70c1f9"></path><path fill="#ed524e" d="M13.712 23.096v1.007a.231.231 0 0 1-.229.229H5.917a.231.231 0 0 1-.228-.23v-1.006c0-.124.104-.229.228-.229h7.566c.125 0 .229.105.229.23z" data-original="#ed524e" class=""></path><g fill="#fff" opacity=".2"><path d="m9.07 4.943 19.544 58.12h19.68L28.738 4.942zM39.39 4.943h-5.593l19.555 58.12h5.578z" fill="#ffffff" data-original="#ffffff" class=""></path></g></g></svg>