<svg width="72" height="72" viewBox="0 0 72 72" fill="none" xmlns="http://www.w3.org/2000/svg">
<g clip-path="url(#clip0_1528_15)">
<path d="M67.5 0.5H4.5C2.29086 0.5 0.5 2.29086 0.5 4.5V67.5C0.5 69.7091 2.29086 71.5 4.5 71.5H67.5C69.7091 71.5 71.5 69.7091 71.5 67.5V4.5C71.5 2.29086 69.7091 0.5 67.5 0.5Z" fill="#17B31B" fill-opacity="0.15"/>
<path fill-rule="evenodd" clip-rule="evenodd" d="M52.9092 37.0358C52.7941 36.7972 52.7343 36.5355 52.7343 36.2703C52.7343 36.0051 52.7941 35.7434 52.9092 35.5048L54.2105 32.5417C54.4779 31.9526 54.6163 31.3127 54.6163 30.6651C54.6163 30.0175 54.4779 29.3775 54.2105 28.7884C53.9573 28.2138 53.589 27.6979 53.1285 27.273C52.668 26.8481 52.1253 26.5234 51.5343 26.3191L48.5143 25.1832C48.2705 25.0851 48.049 24.9382 47.8634 24.7514C47.6777 24.5646 47.5316 24.3419 47.434 24.0967L46.28 21.0348C46.0518 20.4373 45.7051 19.8927 45.2609 19.4342C44.8168 18.9758 44.2844 18.6131 43.6964 18.3682C43.1083 18.1233 42.4769 18.0014 41.8405 18.0098C41.2041 18.0183 40.576 18.157 39.9946 18.4174L37.0484 19.7754C36.56 19.9732 36.0145 19.9732 35.5261 19.7754L32.5798 18.4174C31.9971 18.1529 31.3669 18.0111 30.7277 18.0006C30.0886 17.9901 29.454 18.1112 28.8631 18.3563C28.2721 18.6014 27.7372 18.9655 27.2913 19.4261C26.8453 19.8867 26.4977 20.4342 26.2698 21.0348L25.1404 24.0967C25.0428 24.3419 24.8968 24.5646 24.7111 24.7514C24.5254 24.9382 24.3039 25.0851 24.0601 25.1832L21.0156 26.3191C20.4184 26.5484 19.874 26.8979 19.416 27.3464C18.958 27.7949 18.5961 28.3329 18.3524 28.9272C18.1086 29.5216 17.9883 30.1596 17.9987 30.8024C18.0091 31.4452 18.1501 32.0792 18.413 32.6652L19.7634 35.6283C19.96 36.1194 19.96 36.6681 19.7634 37.1592L18.413 40.1224C18.1523 40.709 18.0176 41.3443 18.0176 41.9867C18.0176 42.6292 18.1523 43.2645 18.413 43.8511C18.6584 44.4265 19.0212 44.9437 19.478 45.3691C19.9348 45.7945 20.4754 46.1185 21.0647 46.3204L24.1092 47.481C24.353 47.5791 24.5745 47.7259 24.7602 47.9127C24.9459 48.0994 25.0919 48.3223 25.1895 48.5675L26.3189 51.6047C26.6556 52.4987 27.253 53.2694 28.0329 53.8158C28.8129 54.3623 29.7388 54.6589 30.6893 54.6666C31.3584 54.6697 32.0202 54.5266 32.6289 54.2469L35.5752 52.8888C35.8144 52.7793 36.0735 52.7204 36.3363 52.7159C36.6017 52.7226 36.862 52.7901 37.0974 52.9134L40.0438 54.2222C40.6253 54.4906 41.2576 54.6295 41.8975 54.6295C42.5374 54.6295 43.1696 54.4906 43.7511 54.2222C44.3452 53.9817 44.8821 53.6175 45.3264 53.1536C45.7707 52.6897 46.1124 52.1366 46.3292 51.5306L47.4832 48.4934C47.5807 48.2482 47.7267 48.0254 47.9124 47.8387C48.0981 47.6519 48.3197 47.505 48.5635 47.4069L51.5834 46.2464C52.1744 46.0421 52.7171 45.7172 53.1776 45.2924C53.638 44.8675 54.0064 44.3517 54.2596 43.7771C54.5265 43.1922 54.6647 42.5563 54.6647 41.9127C54.6647 41.2692 54.5265 40.6333 54.2596 40.0484L52.9092 37.0358ZM28.4499 31.2709C28.4499 30.9239 28.714 30.7019 28.9678 30.7019H43.6951C43.9489 30.7019 44.2129 30.9239 44.2129 31.2709V41.3959C44.2129 41.7428 43.9489 41.9649 43.6951 41.9649H28.9678C28.714 41.9649 28.4499 41.7428 28.4499 41.3959V31.2709ZM28.9678 28.4649C27.4141 28.4649 26.2129 29.7538 26.2129 31.2709V41.3959C26.2129 42.9129 27.4141 44.2019 28.9678 44.2019H43.6951C45.2487 44.2019 46.4499 42.9129 46.4499 41.3959V31.2709C46.4499 29.7538 45.2487 28.4649 43.6951 28.4649H28.9678ZM38.1622 36.2325C38.1622 37.4768 37.1535 38.4854 35.9093 38.4854C34.665 38.4854 33.6563 37.4768 33.6563 36.2325C33.6563 34.9882 34.665 33.9796 35.9093 33.9796C37.1535 33.9796 38.1622 34.9882 38.1622 36.2325Z" fill="#16AA1A"/>
</g>
<defs>
<clipPath id="clip0_1528_15">
<rect width="72" height="72" fill="white"/>
</clipPath>
</defs>
</svg>
