<svg width="512" height="402" viewBox="0 0 512 402" fill="none" xmlns="http://www.w3.org/2000/svg">
<path d="M228.613 13.3805C228.613 6.22138 222.81 0.417969 215.65 0.417969H58.767C51.6079 0.417969 45.8045 6.22138 45.8045 13.3805V18.3945C45.8045 21.1788 44.6984 23.8491 42.7296 25.8179C40.7608 27.7867 38.0906 28.8927 35.3063 28.8927C28.1472 28.8927 22.3438 34.6961 22.3438 41.8553V163.334H476V28.8916H244.125C235.558 28.8916 228.613 21.9468 228.613 13.3805Z" fill="#953EA6"/>
<path d="M51.1055 54.0635H463.914V266.715H51.1055V54.0635Z" fill="#EBF0F3"/>
<path d="M486.076 401.583H25.924C11.6068 401.583 0 389.976 0 375.659V100.15C0 85.8324 11.6068 74.2256 25.924 74.2256H304.302C309.505 74.2257 314.587 72.6601 318.888 69.7325C323.19 66.8048 326.51 62.6507 328.419 57.8103L341.027 25.8303C342.935 20.99 346.256 16.8358 350.557 13.9082C354.858 10.9806 359.941 9.41498 365.144 9.41504H486.074C500.391 9.41504 511.998 21.0219 511.998 35.339V375.659C512 389.976 500.393 401.583 486.076 401.583Z" fill="#AC53C3"/>
</svg>
