<svg xmlns="http://www.w3.org/2000/svg" version="1.1" xmlns:xlink="http://www.w3.org/1999/xlink" width="512" height="512" x="0" y="0" viewBox="0 0 512 512" style="enable-background:new 0 0 512 512" xml:space="preserve" class="">
	<g>
		<path fill="#ffda8c" d="M470.222 281.75 321.411 29.684c-4.665-7.903-12.897-12.599-22.057-12.599l-.247.001c-9.243.085-17.481 4.93-22.045 12.964l-34.916 63.516a181.29 181.29 0 0 1 22.571 6.207c8.735 2.551 18.413 6.888 29.573 13.252 15.95 8.908 30.437 20.121 43.191 33.453 16.008 16.733 28.555 36.035 37.294 57.371 9.049 22.093 13.637 45.501 13.637 69.572 0 15.98-2.061 31.758-6.078 46.984h65.821c9.317 0 17.637-4.83 22.256-12.922 4.617-8.089 4.547-17.71-.189-25.733z" opacity="1" data-original="#ffda8c" class="">
		</path>
		<path fill="#360535" d="M484.934 273.065 336.124 20.998c-3.97-6.725-9.623-12.206-16.348-15.85-6.335-3.434-13.528-5.214-20.826-5.146-7.29.067-14.457 1.979-20.728 5.529-6.657 3.768-12.208 9.352-16.053 16.149l-.051.092-37.938 69.012c-2.835-.297-5.683-.53-8.544-.696a8.563 8.563 0 0 0-3.856-.192 172.61 172.61 0 0 0-7.033-.136c-24.79 0-48.843 4.858-71.492 14.437a183.672 183.672 0 0 0-31.201 16.936c-9.724 6.569-18.867 14.113-27.176 22.422s-15.853 17.452-22.422 27.176a183.71 183.71 0 0 0-16.936 31.201c-9.58 22.648-14.437 46.702-14.437 71.492s4.857 48.843 14.437 71.492a183.672 183.672 0 0 0 16.936 31.201c6.569 9.723 14.113 18.867 22.422 27.176s17.452 15.853 27.176 22.422a183.71 183.71 0 0 0 31.201 16.936c22.648 9.58 46.702 14.437 71.492 14.437 15.26 0 30.432-1.877 45.094-5.579A182.68 182.68 0 0 0 285.2 438.57l58.425 58.436a50.86 50.86 0 0 0 16.956 11.248c6.141 2.487 12.629 3.748 19.283 3.748s13.142-1.261 19.283-3.748a50.86 50.86 0 0 0 16.956-11.248l3.673-3.673c19.982-19.981 19.982-52.494.001-72.476l-55.812-55.823a182.54 182.54 0 0 0 12.952-27.541h71.238c7.855 0 15.486-2.103 22.067-6.082 6.197-3.746 11.393-9.09 15.026-15.454s5.593-13.555 5.669-20.796c.079-7.692-1.989-15.332-5.983-22.096zm-36.781 47.342h-65.821a184.063 184.063 0 0 0 6.078-46.984c0-24.072-4.588-47.479-13.637-69.572-8.739-21.336-21.286-40.638-37.294-57.371-12.754-13.332-27.241-24.545-43.191-33.453-11.159-6.365-20.838-10.701-29.573-13.252a181.29 181.29 0 0 0-22.571-6.207l34.916-63.516c4.565-8.034 12.802-12.879 22.045-12.964l.247-.001c9.16 0 17.392 4.696 22.057 12.599l148.81 252.066c4.737 8.023 4.806 17.644.187 25.735-4.616 8.089-12.936 12.92-22.253 12.92zm-40.46 160.843-3.673 3.673c-6.443 6.443-15.022 9.992-24.157 9.992s-17.714-3.548-24.157-9.991l-54.916-54.926a184.699 184.699 0 0 0 53.722-50.255l53.181 53.192c13.32 13.321 13.32 34.995 0 48.315zm-59.911-122.402H118.418c-.579 0-1.153-.019-1.724-.056-8.556-.554-16.12-5.223-20.47-12.727a26.43 26.43 0 0 1-1.521-3.063c-3.045-7.291-2.564-15.48 1.453-22.495L217.91 107.364a167.387 167.387 0 0 1 26.122 4.116 29.654 29.654 0 0 0-5.116 16.72v102.51c0 7.948 3.091 15.451 8.705 21.127l.067.067c5.676 5.613 13.179 8.705 21.127 8.705 16.486 0 29.899-13.413 29.899-29.899v-94.986c43.982 30.021 72.612 80.562 72.612 137.698 0 30.239-8.127 59.672-23.544 85.426zm-66.153-233.312V230.71c0 7.066-5.748 12.814-12.814 12.814-3.405 0-6.627-1.326-9.08-3.734-2.408-2.452-3.734-5.675-3.734-9.08V128.2a12.81 12.81 0 0 1 6.568-11.2c5.691 1.895 11.98 4.712 19.06 8.536zm-83.164-18.576L81.326 312.024c-3.705 6.47-5.606 13.544-5.702 20.632-.012.915.005 1.829.053 2.743.345 6.625 2.268 13.198 5.767 19.234 3.653 6.301 8.848 11.589 15.025 15.292a41.451 41.451 0 0 0 3.791 2.013c5.618 2.622 11.818 3.994 18.158 3.994h217.627l-.027.035-.196.248c-.444.566-.892 1.128-1.343 1.688l-.521.64c-.351.432-.705.862-1.06 1.29-.193.232-.386.464-.58.694-.356.424-.715.845-1.075 1.265-.182.212-.363.425-.546.636-.457.527-.917 1.051-1.38 1.572l-.251.285c-.545.61-1.094 1.216-1.648 1.818-.17.185-.342.368-.513.553-.392.422-.785.843-1.181 1.261-.206.218-.414.435-.622.652-.375.392-.751.781-1.13 1.169l-.62.634c-.424.43-.851.857-1.279 1.282-.157.156-.313.314-.471.469-.581.572-1.167 1.141-1.756 1.704l-.439.415c-.452.429-.905.856-1.362 1.28-.214.199-.43.396-.645.594a156.104 156.104 0 0 1-3.149 2.821c-.199.174-.396.348-.596.521a177.5 177.5 0 0 1-1.864 1.591l-.179.149c-.571.478-1.145.952-1.722 1.423-.213.174-.428.345-.642.518-.432.349-.865.696-1.301 1.04-.238.188-.476.376-.715.562-.432.337-.865.673-1.3 1.006-.226.173-.451.347-.678.518a171.5 171.5 0 0 1-1.604 1.2l-.375.279c-.659.485-1.322.964-1.989 1.439-.196.14-.393.277-.59.416-.48.339-.96.676-1.444 1.009-.244.169-.49.336-.735.504-.45.307-.902.612-1.355.915-.246.164-.491.328-.738.491-.499.33-1.001.656-1.503.981l-.577.374c-.691.442-1.385.879-2.082 1.311l-.45.275c-.554.34-1.109.678-1.668 1.012-.246.147-.494.293-.741.439a143.197 143.197 0 0 1-2.208 1.284c-.491.28-.984.557-1.478.833-.234.13-.467.262-.701.391-.579.319-1.16.633-1.743.945a8.442 8.442 0 0 0-.854.455c-23.761 12.549-50.607 19.183-77.671 19.183-91.852 0-166.579-74.727-166.579-166.579-.001-89.749 71.341-163.149 160.296-166.462z" opacity="1" data-original="#360535">
		</path>
		<path fill="#92cdf7" d="M204.747 440.002c27.064 0 53.909-6.634 77.671-19.183.278-.168.563-.321.854-.455.583-.312 1.164-.626 1.743-.945.234-.129.468-.261.701-.391a143.205 143.205 0 0 0 2.262-1.284c.476-.275.95-.553 1.424-.833l.741-.439c.558-.334 1.114-.672 1.667-1.012.15-.092.301-.182.45-.275a165.62 165.62 0 0 0 2.083-1.311c.193-.123.385-.249.577-.374.503-.324 1.004-.651 1.503-.981.247-.163.492-.327.738-.491a178.437 178.437 0 0 0 2.09-1.419c.483-.334.964-.671 1.444-1.009.196-.139.394-.276.59-.416.666-.475 1.33-.954 1.989-1.439.126-.092.25-.187.375-.279a171.5 171.5 0 0 0 1.604-1.2c.227-.172.452-.345.678-.518a140.682 140.682 0 0 0 2.015-1.568c.436-.344.869-.691 1.301-1.04.214-.173.429-.344.642-.518.577-.47 1.151-.945 1.722-1.423l.179-.149c.626-.525 1.246-1.056 1.864-1.591.199-.172.397-.347.596-.521.425-.371.849-.744 1.27-1.119.226-.201.451-.404.676-.607.403-.363.804-.728 1.203-1.095.215-.198.431-.395.645-.594.456-.424.91-.851 1.362-1.28.146-.139.294-.276.439-.415a166.19 166.19 0 0 0 1.756-1.704c.158-.155.314-.313.471-.469a154.592 154.592 0 0 0 3.029-3.085l.622-.652c.396-.418.789-.839 1.181-1.261.171-.184.343-.368.513-.553.553-.602 1.103-1.208 1.648-1.818l.251-.285c.463-.521.923-1.045 1.38-1.572.183-.211.364-.424.546-.636a184.065 184.065 0 0 0 1.655-1.959c.356-.428.709-.858 1.06-1.29l.521-.64c.451-.56.899-1.122 1.343-1.688.065-.083.132-.165.196-.248l.027-.035H118.418c-6.34 0-12.54-1.371-18.158-3.994a42.25 42.25 0 0 1-1.921-.957 41.88 41.88 0 0 1-1.87-1.056c-6.177-3.703-11.373-8.99-15.025-15.292-3.5-6.037-5.422-12.609-5.767-19.234a41.835 41.835 0 0 1-.053-2.743c.097-7.088 1.997-14.162 5.702-20.632l117.139-205.064c-88.954 3.313-160.297 76.713-160.297 166.462 0 91.852 74.727 166.579 166.579 166.579z" opacity="1" data-original="#92cdf7">
		</path>
		<path fill="#ffda8c" d="M298.714 135.724v94.986c0 16.486-13.413 29.899-29.899 29.899-7.948 0-15.452-3.091-21.127-8.705l-.067-.067c-5.613-5.676-8.705-13.179-8.705-21.127V128.2a29.654 29.654 0 0 1 5.116-16.72 167.287 167.287 0 0 0-26.122-4.116L96.157 320.507c-4.017 7.015-4.499 15.205-1.453 22.495a26.272 26.272 0 0 0 1.521 3.063c4.35 7.504 11.914 12.173 20.47 12.727.57.037 1.145.056 1.724.056h229.363c15.417-25.754 23.544-55.187 23.544-85.425 0-57.136-28.63-107.678-72.612-137.699zm-29.898 206.039c-18.842 0-34.17-15.329-34.17-34.17 0-18.842 15.328-34.17 34.17-34.17 18.841 0 34.17 15.328 34.17 34.17 0 18.841-15.329 34.17-34.17 34.17z" opacity="1" data-original="#ffda8c" class="">
		</path>
		<path fill="#ffa5a5" d="M354.511 379.743a184.686 184.686 0 0 1-53.722 50.255l54.916 54.926c6.443 6.443 15.022 9.991 24.157 9.991s17.714-3.548 24.157-9.992l3.673-3.673c13.32-13.32 13.32-34.994 0-48.315z" opacity="1" data-original="#ffa5a5">
		</path>
		<circle cx="268.81" cy="307.593" r="17.085" fill="#ffffff" transform="rotate(-45 268.774 307.665)" opacity="1" data-original="#ffffff">
		</circle>
		<path fill="#360535" d="M268.816 273.423c-18.842 0-34.17 15.328-34.17 34.17 0 18.841 15.328 34.17 34.17 34.17 18.841 0 34.17-15.329 34.17-34.17 0-18.842-15.329-34.17-34.17-34.17zm0 51.255c-9.421 0-17.085-7.664-17.085-17.085s7.664-17.085 17.085-17.085 17.085 7.664 17.085 17.085c0 9.42-7.665 17.085-17.085 17.085z" opacity="1" data-original="#360535">
		</path>
		<path fill="#ffffff" d="M256.002 128.2v102.51c0 3.405 1.326 6.627 3.734 9.08 2.452 2.408 5.675 3.734 9.08 3.734 7.065 0 12.814-5.748 12.814-12.814V125.536c-7.08-3.824-13.369-6.64-19.059-8.536a12.81 12.81 0 0 0-6.569 11.2z" opacity="1" data-original="#ffffff">
		</path>
	</g>
</svg>
