<svg xmlns="http://www.w3.org/2000/svg" version="1.1" xmlns:xlink="http://www.w3.org/1999/xlink" xmlns:svgjs="http://svgjs.com/svgjs" width="512" height="512" x="0" y="0" viewBox="0 0 64 64" style="enable-background:new 0 0 512 512" xml:space="preserve" class=""><g><path fill="#fab400" d="M42 52c0-5.48 4.432-9.94 9.899-9.995.065-.66.101-1.328.101-2.005v-4H40v4a8 8 0 0 1-16 0v-4H12v4c0 11.046 8.954 20 20 20 4.123 0 7.953-1.25 11.136-3.388A9.924 9.924 0 0 1 42 52z" data-original="#fab400"></path><path fill="#f0c8a0" d="M18 20a6 6 0 1 1 0-12 6 6 0 0 1 0 12z" data-original="#f0c8a0"></path><path fill="#fab400" d="M12 14a6 6 0 1 1 12 0z" data-original="#fab400"></path><path fill="#d2aa82" d="M16 14a5.996 5.996 0 0 1 4-5.651A5.97 5.97 0 0 0 18 8a6 6 0 1 0 0 12 5.97 5.97 0 0 0 2-.349A5.996 5.996 0 0 1 16 14z" data-original="#d2aa82"></path><path fill="#dc9600" d="M20 8.349A5.97 5.97 0 0 0 18 8a6 6 0 0 0-6 6h4a5.996 5.996 0 0 1 4-5.651z" data-original="#dc9600"></path><path fill="#fa6450" d="M24 26a6 6 0 1 0-12 0z" data-original="#fa6450" class=""></path><path fill="#dc4632" d="M16 26a5.996 5.996 0 0 1 4-5.651A5.97 5.97 0 0 0 18 20a6 6 0 0 0-6 6z" data-original="#dc4632"></path><path fill="#f0c8a0" d="M46 20a6 6 0 1 1 0-12 6 6 0 0 1 0 12z" data-original="#f0c8a0"></path><path fill="#fab400" d="M40 14a6 6 0 1 1 12 0z" data-original="#fab400"></path><path fill="#d2aa82" d="M44 14a5.996 5.996 0 0 1 4-5.651A5.97 5.97 0 0 0 46 8a6 6 0 1 0 0 12 5.97 5.97 0 0 0 2-.349A5.996 5.996 0 0 1 44 14z" data-original="#d2aa82"></path><path fill="#dc9600" d="M48 8.349A5.97 5.97 0 0 0 46 8a6 6 0 0 0-6 6h4a5.996 5.996 0 0 1 4-5.651z" data-original="#dc9600"></path><path fill="#fa6450" d="M52 26a6 6 0 1 0-12 0z" data-original="#fa6450" class=""></path><path fill="#dc4632" d="M44 26a5.996 5.996 0 0 1 4-5.651A5.97 5.97 0 0 0 46 20a6 6 0 0 0-6 6z" data-original="#dc4632"></path><path fill="#f0c8a0" d="M32 16a6 6 0 1 1 0-12 6 6 0 0 1 0 12z" data-original="#f0c8a0"></path><path fill="#fab400" d="M26 10a6 6 0 1 1 12 0z" data-original="#fab400"></path><path fill="#d2aa82" d="M30 10a5.996 5.996 0 0 1 4-5.651A5.97 5.97 0 0 0 32 4a6 6 0 1 0 0 12 5.97 5.97 0 0 0 2-.349A5.996 5.996 0 0 1 30 10z" data-original="#d2aa82"></path><path fill="#dc9600" d="M34 4.349A5.97 5.97 0 0 0 32 4a6 6 0 0 0-6 6h4a5.996 5.996 0 0 1 4-5.651z" data-original="#dc9600"></path><path fill="#fa6450" d="M38 22a6 6 0 1 0-12 0z" data-original="#fa6450" class=""></path><path fill="#dc4632" d="M30 22a5.996 5.996 0 0 1 4-5.651A5.97 5.97 0 0 0 32 16a6 6 0 0 0-6 6z" data-original="#dc4632"></path><path fill="#dc9600" d="M36 48a8 8 0 0 0 8-8v-4h-4v4c0 3.726-2.551 6.848-6 7.738.64.165 1.308.262 2 .262zM16 40v-4h-4v4c0 11.046 8.954 20 20 20 .675 0 1.342-.036 2-.101C23.894 58.895 16 50.37 16 40z" data-original="#dc9600"></path><path fill="#fa6450" d="M12 28h12v8H12z" data-original="#fa6450" class=""></path><path fill="#dc4632" d="M12 28h4v8h-4z" data-original="#dc4632"></path><path fill="#64c8f0" d="M40 28h12v8H40z" data-original="#64c8f0"></path><path fill="#46aad2" d="M40 28h4v8h-4z" data-original="#46aad2"></path><path fill="#fab400" d="m32 24-4 8h4v6l4-8h-4z" data-original="#fab400"></path><circle cx="52" cy="52" r="8" fill="#fa6450" data-original="#fa6450" class=""></circle><path fill="#dc4632" d="M45.983 52c0-4.082 3.059-7.443 7.009-7.932A7.932 7.932 0 0 0 52 44a8 8 0 0 0 0 16c.336 0 .666-.027.991-.068-3.949-.489-7.008-3.85-7.008-7.932z" data-original="#dc4632"></path><path fill="#f0f0f0" d="M56 52.8v-1.6h-.905a3.191 3.191 0 0 0-.341-.823l.64-.64-1.131-1.131-.64.64a3.191 3.191 0 0 0-.823-.341V48h-1.6v.905a3.191 3.191 0 0 0-.823.341l-.64-.64-1.131 1.131.64.64c-.15.254-.265.53-.341.823H48v1.6h.905c.076.293.191.569.341.823l-.64.64 1.131 1.131.64-.64c.254.15.53.265.823.341V56h1.6v-.905c.293-.076.569-.191.823-.341l.64.64 1.131-1.131-.64-.64c.15-.254.265-.53.341-.823zm-4 .8c-.882 0-1.6-.718-1.6-1.6s.718-1.6 1.6-1.6 1.6.718 1.6 1.6-.718 1.6-1.6 1.6z" data-original="#f0f0f0"></path></g></svg>