<svg width="512" height="471" viewBox="0 0 512 471" fill="none" xmlns="http://www.w3.org/2000/svg">
<path d="M133.324 374.331C99.1706 374.331 68.7919 352.463 57.7596 319.907L57.0136 317.454C54.4115 308.833 53.3215 301.583 53.3215 294.329V148.872L1.56616 321.634C-5.09001 347.045 10.0784 373.39 35.528 380.409L365.416 468.755C369.429 469.8 373.558 470.33 377.705 470.333C398.951 470.333 418.366 456.232 423.808 435.449L443.027 374.331H133.324Z" fill="#ABC3D3"/>
<path d="M512.001 48.9866V294.329C512.001 320.782 490.454 342.33 464 342.33H133.323C131.19 342.33 129.058 342.115 127.136 341.9C104.737 339.13 87.2453 320.782 85.5373 298.169C85.3223 296.888 85.3223 295.606 85.3223 294.329V48.9866C85.3223 22.5329 106.87 0.985352 133.323 0.985352H464C490.454 0.985352 512.001 22.5329 512.001 48.9866Z" fill="#ABC3D3"/>
<path d="M234.658 107.656C234.658 131.22 215.557 150.325 191.993 150.325C168.427 150.325 149.324 131.22 149.324 107.656C149.324 84.0923 168.427 64.9868 191.993 64.9868C215.557 64.9868 234.658 84.0933 234.658 107.656Z" fill="#7A07FF"/>
<path d="M512.002 234.378V294.33C512.002 320.783 490.454 342.331 464 342.331H133.324C131.191 342.331 129.059 342.115 127.137 341.901L346.876 122.164C361.385 107.656 385.276 107.656 399.784 122.164L512.002 234.378Z" fill="#388E3C"/>
<path d="M385.276 342.33H133.323C131.191 342.33 129.058 342.115 127.136 341.9C104.737 339.13 87.2452 320.783 85.5371 298.169L186.872 196.83C201.38 182.326 225.272 182.326 239.779 196.83L385.276 342.33Z" fill="#4CAF50"/>
</svg>
