<svg xmlns="http://www.w3.org/2000/svg" version="1.1" xmlns:xlink="http://www.w3.org/1999/xlink" width="512" height="512" x="0" y="0" viewBox="0 0 504.5 504.5" style="enable-background:new 0 0 512 512" xml:space="preserve" class="">
	<g>
		<path fill="#faa515" d="m242 104.5-73.032 35.573a31.612 31.612 0 0 0-14.74 15.51l-91.11 228.401c-9.418 21.331.188 46.265 21.458 55.688l90.623 40.156H242.5z" opacity="1" data-original="#faa515" class="">
		</path>
		<path fill="#fad207" d="M445 415.5v44c0 24.496-20.494 45-45 45H215c-24.506 0-44-20.504-44-45v-259c0-7.726 2.19-15.051 7.109-21.01l55.623-67.394C240.053 104.436 249.066 99.5 259 99.5h97c9.934 0 18.947 4.936 25.269 12.596l55.623 67.394c4.918 5.959 8.109 13.285 8.109 21.01v215z" opacity="1" data-original="#fad207" class="">
		</path>
		<g fill="#f8c201" fill-rule="evenodd" clip-rule="evenodd">
			<path d="m292.431 275.013.001-.011-.258-.258a26.803 26.803 0 0 0-.413-.413l-10.346-10.352-1.468 2.923A32.352 32.352 0 0 0 269 265h-1c-17.921 0-32.5 14.58-32.5 32.5 0 3.712.634 7.276 1.785 10.602l-3.038 1.558 10.714 10.738.135.136.144.144.005-.003C251.111 326.437 259.146 330 268 330h1c17.921 0 32.5-14.58 32.5-32.5 0-8.721-3.459-16.644-9.069-22.487zM269 315h-1c-9.649 0-17.5-7.851-17.5-17.5S258.351 280 268 280h1c9.649 0 17.5 7.851 17.5 17.5S278.649 315 269 315zM386.304 268.197l-10-10-138.608 138.606 10 10c1.465 1.464 3.385 2.197 5.304 2.197s3.839-.732 5.304-2.197l128-128a7.501 7.501 0 0 0 0-10.606zM388.271 351.959l.009-.004-8.273-8.388.536 3.401A32.293 32.293 0 0 0 367 344h-1c-17.921 0-32.5 14.58-32.5 32.5 0 4.631.98 9.036 2.734 13.027l-3.672-.535 9.952 9.938c.355.372.719.735 1.092 1.09l.228.228.002-.008c5.81 5.427 13.603 8.76 22.164 8.76h1c17.921 0 32.5-14.58 32.5-32.5 0-9.791-4.358-18.577-11.229-24.541zM367 394h-1c-9.649 0-17.5-7.851-17.5-17.5S356.351 359 366 359h1c9.649 0 17.5 7.851 17.5 17.5S376.649 394 367 394z" fill="#f8c201" opacity="1" data-original="#f8c201">
			</path>
		</g>
		<g fill="#f5f5f5">
			<path d="M243 399a7.5 7.5 0 0 1-5.304-12.803l128-128a7.5 7.5 0 0 1 10.607 10.606l-128 128A7.474 7.474 0 0 1 243 399zM259 320h-1c-17.921 0-32.5-14.58-32.5-32.5S240.079 255 258 255h1c17.921 0 32.5 14.58 32.5 32.5S276.921 320 259 320zm-1-50c-9.649 0-17.5 7.851-17.5 17.5S248.351 305 258 305h1c9.649 0 17.5-7.851 17.5-17.5S268.649 270 259 270zM357 399h-1c-17.921 0-32.5-14.58-32.5-32.5S338.079 334 356 334h1c17.921 0 32.5 14.58 32.5 32.5S374.921 399 357 399zm-1-50c-9.649 0-17.5 7.851-17.5 17.5S346.351 384 356 384h1c9.649 0 17.5-7.851 17.5-17.5S366.649 349 357 349z" fill="#f5f5f5" opacity="1" data-original="#f5f5f5" class="">
			</path>
		</g>
		<path fill="#e0a446" d="M323.8 160.493a7.5 7.5 0 0 1-2.08-14.707 56.44 56.44 0 0 0 2.545-.802c22.87-7.807 38.235-29.301 38.235-53.485v-84a7.5 7.5 0 0 1 15 0v84c0 30.602-19.446 57.8-48.39 67.68a72.109 72.109 0 0 1-3.223 1.016 7.47 7.47 0 0 1-2.087.298z" opacity="1" data-original="#e0a446">
		</path>
		<path fill="#f5f5f5" d="M308 179c-12.958 0-23.5-10.542-23.5-23.5S295.042 132 308 132s23.5 10.542 23.5 23.5S320.958 179 308 179z" opacity="1" data-original="#f5f5f5" class="">
		</path>
	</g>
</svg>
