<svg xmlns="http://www.w3.org/2000/svg" version="1.1" xmlns:xlink="http://www.w3.org/1999/xlink" xmlns:svgjs="http://svgjs.com/svgjs" width="512" height="512" x="0" y="0" viewBox="0 0 512 511" style="enable-background:new 0 0 512 512" xml:space="preserve" class=""><g><path fill="#c9b77d" d="m162.984 249.777-28.234 30.489 1.133 16.937s-33.875 2.254-57.59 9.031c-23.711 6.778-40.094 32.727-43.484 41.762-3.387 9.035-3.942 27.117 10.738 46.313 14.68 19.195 102.754 30.488 102.754 30.488s72.265-38.39 88.07-47.426c15.813-9.031 47.426-63.234 47.426-63.234zM453.094 84.898c-14.676-19.195-102.75-30.488-102.75-30.488s-72.27 38.39-88.074 47.426c-15.81 9.031-47.422 63.234-47.422 63.234l120.816 64.364 28.23-30.489-1.128-16.933s33.875-2.258 57.59-9.035c23.71-6.778 38.546-38.727 41.933-47.758 3.383-9.035 5.484-21.121-9.195-40.32zm0 0" data-original="#c9b77d" class=""></path><path fill="#96ceb4" d="M394.773 138.918H140.848c-10.485 0-18.985 8.5-18.985 18.984v146.782c0 10.488 8.5 18.992 18.985 18.992h253.925c10.485 0 18.985-8.5 18.985-18.992V157.902c0-10.484-8.5-18.984-18.985-18.984zm0 0" data-original="#96ceb4" class=""></path><path fill="#99734a" d="M121.863 166.68h291.895v40.132H121.863zm0 0" data-original="#99734a" class=""></path><path fill="#e05858" d="M370.965 233.188c0 9.101-7.38 16.48-16.48 16.48s-16.481-7.379-16.481-16.48 7.379-16.481 16.48-16.481 16.48 7.379 16.48 16.48zm0 0" data-original="#e05858"></path><path fill="#ffeead" d="M392.36 233.188c0 9.101-7.38 16.48-16.485 16.48-9.102 0-16.48-7.379-16.48-16.48s7.378-16.481 16.48-16.481c9.105 0 16.484 7.379 16.484 16.48zm0 0" data-original="#ffeead"></path><path fill="#ffffff" d="M392.36 276.25c0 9.102-7.38 16.48-16.485 16.48-9.102 0-16.48-7.378-16.48-16.48s7.378-16.484 16.48-16.484c9.105 0 16.484 7.382 16.484 16.484zm0 0" data-original="#ffffff"></path><path fill="#ffcc5c" d="M370.965 276.25c0 9.102-7.38 16.48-16.48 16.48s-16.481-7.378-16.481-16.48 7.379-16.484 16.48-16.484 16.48 7.382 16.48 16.484zm0 0" data-original="#ffcc5c"></path><path fill="#ffeead" d="M138.965 224.129h163.137v29.695H138.965zm0 0" data-original="#ffeead"></path><path fill="#99734a" d="M297.746 266.133H140.645a4.37 4.37 0 0 0-4.356 4.36c0 2.394 1.957 4.359 4.356 4.359h157.101c2.395 0 4.36-1.961 4.36-4.36-.004-2.394-1.965-4.36-4.36-4.36zM297.746 288.438H140.645a4.37 4.37 0 0 0-4.356 4.359 4.365 4.365 0 0 0 4.356 4.36h157.101a4.371 4.371 0 0 0 4.36-4.36 4.374 4.374 0 0 0-4.36-4.36zm0 0" data-original="#99734a" class=""></path><path fill="#71a58a" d="M394.773 138.918H300.2l-18.855 40.008s10.707.933 27.531-5.656c16.824-6.59 29.676-17.438 37.938-20.192 0 0 32.093 12.574 64.636-4.066-3.195-5.98-9.426-10.094-16.676-10.094zm0 0" data-original="#71a58a"></path><path fill="#825e3b" d="m287.113 166.68-5.77 12.246s10.708.933 27.532-5.656c4.934-1.93 9.484-4.235 13.719-6.59zm0 0" data-original="#825e3b"></path><path fill="#ffeead" d="M414.117 34.578c-15.289-1.226-52.594 9.168-74.61 25.074 0 0-39.753 38.528-47.702 49.535-7.95 11.008-33.633 50.758-33.633 50.758s-4.281 11.621 3.668 15.899c7.95 4.277 35.469 7.336 51.367-14.063 15.898-21.406 33.637-26.3 33.637-26.3s17.125 8.562 39.754 9.171c22.625.61 72.773-34.246 74.609-45.257 1.836-11-31.8-63.594-47.09-64.817zm0 0" data-original="#ffeead"></path><path fill="#71a58a" d="M185.207 310.191c-6.215 3.73-19.89 13.489-19.89 13.489h20.109l20.11-20.883c0-.004-14.106 3.664-20.329 7.394zm0 0" data-original="#71a58a"></path><path fill="#ffeead" d="M236.809 303.36c-7.954-4.278-35.47-7.34-51.368 14.062-15.902 21.406-33.636 26.3-33.636 26.3s-17.125-8.562-39.754-9.175c-22.633-.606-72.778 34.25-74.61 45.262-1.836 11.007 31.801 63.601 47.09 64.82 15.29 1.226 52.594-9.168 74.61-25.074 0 0 39.754-38.528 47.699-49.535 7.953-11.004 33.637-50.758 33.637-50.758s4.28-11.621-3.668-15.903zm0 0" data-original="#ffeead"></path><path fill="#96ceb4" d="m508.922 107.445-46.324-91.3c-7.121-14.028-24.426-19.688-38.453-12.563-14.032 7.117-19.684 24.422-12.567 38.453l46.324 91.297c7.121 14.027 24.426 19.68 38.453 12.563 14.032-7.114 19.684-24.422 12.567-38.45zm0 0" data-original="#96ceb4" class=""></path><path fill="#ff6f69" d="m100.422 429.633-46.324-91.297c-7.121-14.031-24.426-19.688-38.453-12.566C1.613 332.89-4.04 350.19 3.078 364.223l46.324 91.297c7.121 14.03 24.426 19.683 38.453 12.566 14.032-7.121 19.684-24.426 12.567-38.453zm0 0" data-original="#ff6f69"></path></g></svg>