<svg xmlns="http://www.w3.org/2000/svg" version="1.1" xmlns:xlink="http://www.w3.org/1999/xlink" xmlns:svgjs="http://svgjs.com/svgjs" width="512" height="512" x="0" y="0" viewBox="0 0 512 512" style="enable-background:new 0 0 512 512" xml:space="preserve" class=""><g><path d="M61.332 69.021a7.662 7.662 0 0 1-5.437-2.253L2.252 13.127a7.689 7.689 0 0 1 0-10.874 7.689 7.689 0 0 1 10.874 0l53.642 53.642a7.689 7.689 0 0 1-5.436 13.126zM504.31 512a7.662 7.662 0 0 1-5.437-2.253l-72.485-72.485a7.689 7.689 0 0 1 0-10.874 7.689 7.689 0 0 1 10.874 0l72.485 72.485a7.689 7.689 0 0 1 0 10.874A7.667 7.667 0 0 1 504.31 512z" style="" fill="#424c59" data-original="#424c59"></path><path d="m262.481 229.858-53.104-53.104 25.011-25.011 53.104 53.104c6.906 6.906 6.906 18.105 0 25.011-6.906 6.906-18.105 6.906-25.011 0zM229.856 287.495a17.62 17.62 0 0 1-12.498 5.177 17.593 17.593 0 0 1-12.514-5.177l-53.107-53.107 25.012-25.012 53.107 53.107c4.771 4.771 6.242 11.578 4.438 17.602a17.611 17.611 0 0 1-4.438 7.41z" style="" fill="#bcbcbc" data-original="#bcbcbc"></path><path d="M234.292 280.085c-1.66.5-3.371.746-5.097.746a17.631 17.631 0 0 1-12.507-5.184l-53.107-53.107 13.166-13.166 53.107 53.107c4.772 4.771 6.244 11.579 4.438 17.604zM291.93 222.449c-1.66.5-3.371.746-5.097.746a17.631 17.631 0 0 1-12.507-5.184l-53.107-53.107 13.166-13.166 53.107 53.107c4.771 4.771 6.242 11.579 4.438 17.604zM37.578 69.113l58.523 58.523L127.638 96.1 69.115 37.578a9.507 9.507 0 0 0-13.447 0l-18.09 18.09c-3.712 3.712-3.712 9.733 0 13.445z" style="" fill="#d8d8d8" data-original="#d8d8d8"></path><path d="m37.578 69.113 58.523 58.523 15.768-15.768-65.246-65.246-9.044 9.044c-3.713 3.714-3.713 9.735-.001 13.447z" style="" fill="#bcbcbc" data-original="#bcbcbc"></path><path d="m234.082 127.191-120.197 93.59-50.866-50.866c-16.95-16.95-16.95-44.443 0-61.393l45.501-45.501c16.958-16.958 44.443-16.95 61.393 0l64.169 64.17z" style="" fill="#239999" data-original="#239999" class=""></path><path d="M248.778 144.597 144.595 248.78c-8.106 8.106-21.242 8.106-29.355-.007-8.105-8.105-8.105-21.242 0-29.348l104.182-104.182c8.105-8.105 21.249-8.113 29.355-.007a20.713 20.713 0 0 1 6.083 14.681 20.683 20.683 0 0 1-6.082 14.68z" style="" fill="#239999" data-original="#239999" class=""></path><path d="m248.778 144.597-76.748 76.748c-8.105 8.105-21.249 8.113-29.363 0-8.105-8.105-8.098-21.249.007-29.355l76.748-76.748c8.105-8.105 21.249-8.113 29.355-.007a20.713 20.713 0 0 1 6.083 14.681 20.684 20.684 0 0 1-6.082 14.681zM209.587 102.695c-.492.4-.964.83-1.425 1.292l-62.984 62.984c-7.283 7.283-19.089 7.283-26.372 0l-26.422-26.422c-16.959-16.948-16.959-44.437 0-61.395l16.138-16.138c16.959-16.948 44.437-16.948 61.385 0l39.68 39.679z" style="" fill="#45b8c4" data-original="#45b8c4" class=""></path><path d="m389.712 421.247 45.966 45.966a9.507 9.507 0 0 0 13.447 0l18.089-18.089a9.507 9.507 0 0 0 0-13.447l-45.966-45.966-31.536 31.536z" style="" fill="#d8d8d8" data-original="#d8d8d8"></path><path d="m389.712 421.247 45.966 45.966a9.507 9.507 0 0 0 13.447 0l9.044-9.044-52.69-52.69-15.767 15.768z" style="" fill="#bcbcbc" data-original="#bcbcbc"></path><path d="m450.531 387.516-63.01 63.01c-21.655 21.655-56.753 21.648-78.401 0l-75.936-75.936 156.005-126.817 61.342 61.342c21.648 21.648 21.648 56.752 0 78.401z" style="" fill="#d8a32e" data-original="#d8a32e"></path><path d="m392.125 244.836-147.291 147.29c-8.106 8.106-21.249 8.113-29.355.007-8.113-8.113-8.106-21.257 0-29.363L362.77 215.48a20.654 20.654 0 0 1 14.681-6.083c5.307 0 10.628 2.03 14.681 6.083 8.106 8.106 8.106 21.243-.007 29.356z" style="" fill="#d8a32e" data-original="#d8a32e"></path><path d="M392.122 244.833 278.806 358.15c-8.1 8.11-21.244 8.12-29.354.01l-.095-.095c-4.663-4.723-4.466-12.395.228-17.088l116.578-116.588c4.829-4.819 10.817-7.536 16.63-8.028 4.358-.379 8.613.502 12.181 2.666 5.105 8.027 4.161 18.793-2.852 25.806zM450.531 387.516l-36.917 36.917c-21.648 21.648-56.745 21.641-78.394-.007l-61.342-61.342 115.311-115.311 61.342 61.342c21.648 21.648 21.648 56.752 0 78.401z" style="" fill="#fcc63d" data-original="#fcc63d"></path></g></svg>