<svg xmlns="http://www.w3.org/2000/svg" version="1.1" xmlns:xlink="http://www.w3.org/1999/xlink" xmlns:svgjs="http://svgjs.com/svgjs" width="512" height="512" x="0" y="0" viewBox="0 0 403.08 464.001" style="enable-background:new 0 0 512 512" xml:space="preserve"><g><g data-name="Calque 2"><g data-name="40- Gift"><path fill="#c5c5ff" d="M378.333 217.011v156.954a11.478 11.478 0 0 1-6.5 10.343L338.6 400.3l-56.05 26.975-73.97 35.591a11.479 11.479 0 0 1-9.857.046l-83.015-39-56.058-26.331-28.308-13.3a11.478 11.478 0 0 1-6.6-10.388V227.3l34.905-1.01 56.058-1.63 166.845-4.86 56.047-1.63z" data-original="#c5c5ff"></path><path fill="#a4a4f7" d="M403.08 177.4v29.72a34.416 34.416 0 0 1-19.5 31.02l-164.87 79.34a34.418 34.418 0 0 1-29.57.13L19.79 238.061A34.439 34.439 0 0 1 0 206.891v-29.71a34.459 34.459 0 0 1 19.5-31.03l164.87-79.33a34.418 34.418 0 0 1 29.57-.14l169.35 79.56a34.437 34.437 0 0 1 19.79 31.16z" data-original="#a4a4f7"></path><path fill="#c5c5ff" d="m397.3 158.311-178.59 85.94a34.383 34.383 0 0 1-29.57.13L5.7 158.211a34.318 34.318 0 0 1 13.8-12.06l164.87-79.33a34.418 34.418 0 0 1 29.57-.14l169.35 79.56a34.372 34.372 0 0 1 14.01 12.07z" data-original="#c5c5ff"></path><g fill="#ff9fb3"><path d="m215.508 150.543-89.417 53.174a21.241 21.241 0 0 0-10.383 18.257v201.938L59.65 397.581V195.493a21.239 21.239 0 0 1 10.2-18.142l101.909-62.046z" fill="#ff9fb3" data-original="#ff9fb3"></path><path d="M338.6 198.231V400.3l-56.05 26.975V225.244a21.24 21.24 0 0 0-9.905-17.963l-89.907-56.738 43.754-35.238 102.258 65a21.24 21.24 0 0 1 9.85 17.926z" fill="#ff9fb3" data-original="#ff9fb3"></path><path d="M375.77 91.861c-.5 1.94-1.06 3.83-1.66 5.67-22.39 68.16-113.15 65.16-151.55 60.63-10.67-1.25-17.3-2.63-17.3-2.63l-6.14-47.51c45.55-170.67 200.94-110.18 176.65-16.16z" fill="#ff9fb3" data-original="#ff9fb3"></path></g><path fill="#ff8293" d="M374.11 97.531c-22.39 68.16-113.15 65.16-151.55 60.63-6.54-4.62-10.45-7.59-10.45-7.59l-5.66-18.59a185.384 185.384 0 0 1 18.05-28.23c23.37-30.39 67.95-69.31 125.04-29.21a155.238 155.238 0 0 1 19.8 16.72z" data-original="#ff8293"></path><path fill="#ff6b7d" d="M349.54 74.541v.01c-11.39 13.22-51.93 51.42-125.04 29.2 23.37-30.39 67.95-69.31 125.04-29.21z" data-original="#ff6b7d"></path><path fill="#ff9fb3" d="m196.79 108.021-6.13 47.51s-2.17.45-6.04 1.07c-27.21 4.38-138.22 17.24-162.97-59.55-.54-1.68-1.04-3.42-1.5-5.19-24.29-94.02 131.1-154.51 176.64 16.16z" data-original="#ff9fb3"></path><path fill="#ff8293" d="m189.47 131.981-4.85 24.62c-27.21 4.38-138.22 17.24-162.97-59.55l4.93-5.79a155.753 155.753 0 0 1 19.79-16.71c57.1-40.12 101.68-1.19 125.05 29.2a185.384 185.384 0 0 1 18.05 28.23z" data-original="#ff8293"></path><path fill="#ff6b7d" d="M171.42 103.751c-73.11 22.22-113.65-15.98-125.05-29.2 57.1-40.12 101.68-1.19 125.05 29.2z" data-original="#ff6b7d"></path><path fill="#ff6b7d" d="M210.251 170.306a19.314 19.314 0 0 0 19.219-17.053c2.624-22.888 1.682-60.7-33.19-60.7-35.1 0-34.939 38.305-31.726 61.145a19.334 19.334 0 0 0 19.163 16.612z" data-original="#ff6b7d"></path></g></g></g></svg>