<svg xmlns="http://www.w3.org/2000/svg" version="1.1" xmlns:xlink="http://www.w3.org/1999/xlink" xmlns:svgjs="http://svgjs.com/svgjs" width="512" height="512" x="0" y="0" viewBox="0 0 24 24" style="enable-background:new 0 0 512 512" xml:space="preserve" class=""><g><linearGradient id="a" x1="11.967" x2="11.967" y1="21.627" y2="2.585" gradientUnits="userSpaceOnUse"><stop offset=".003" stop-color="#fd4085"></stop><stop offset="1" stop-color="#ffa28d"></stop></linearGradient><path fill="url(#a)" d="M20.98 13.453c-.57-.313-.898-.844-.898-1.455 0-.612.328-1.142.898-1.455.44-.24.766-.652.894-1.128a1.777 1.777 0 0 0-.202-1.395l-1.27-2.09c-.513-.844-1.645-1.14-2.522-.659a1.933 1.933 0 0 1-1.93-.032c-.536-.317-.844-.836-.844-1.423 0-1.006-.838-1.825-1.868-1.825h-2.542c-1.03 0-1.869.819-1.869 1.825 0 .587-.307 1.106-.842 1.423a1.934 1.934 0 0 1-1.93.032c-.877-.48-2.01-.185-2.522.66L2.263 8.02c-.258.422-.33.917-.202 1.393.127.477.453.89.893 1.13.57.313.898.843.898 1.455 0 .611-.327 1.142-.898 1.455a1.84 1.84 0 0 0-.894 1.131c-.127.476-.055.97.202 1.392l1.27 2.09a1.885 1.885 0 0 0 2.523.66 1.93 1.93 0 0 1 1.93.03c.535.318.843.836.843 1.424 0 1.006.838 1.824 1.868 1.824h2.542c1.03 0 1.869-.818 1.869-1.824 0-.588.307-1.106.842-1.424a1.933 1.933 0 0 1 1.931-.03c.89.487 2 .198 2.522-.66l1.27-2.09c.257-.423.33-.917.202-1.393a1.842 1.842 0 0 0-.893-1.13z" data-original="url(#a)" class=""></path><path fill="#fff1f3" d="M11.957 10c1.102 0 2 .897 2 2s-.898 2-2 2-2-.897-2-2 .897-2 2-2m0-2a4 4 0 1 0 0 8 4 4 0 0 0 0-8z" data-original="#fff1f3"></path></g></svg>