<svg width="72" height="72" viewBox="0 0 72 72" fill="none" xmlns="http://www.w3.org/2000/svg">
<g clip-path="url(#clip0_1528_9)">
<path d="M67.9437 0H4.05634C1.81608 0 0 1.81608 0 4.05634V67.9437C0 70.1839 1.81608 72 4.05634 72H67.9437C70.1839 72 72 70.1839 72 67.9437V4.05634C72 1.81608 70.1839 0 67.9437 0Z" fill="#FAB73B" fill-opacity="0.15"/>
<path fill-rule="evenodd" clip-rule="evenodd" d="M52.9112 36.0358C52.796 35.7972 52.7362 35.5355 52.7362 35.2703C52.7362 35.0051 52.796 34.7434 52.9112 34.5048L54.2124 31.5417C54.4799 30.9526 54.6183 30.3127 54.6183 29.6651C54.6183 29.0175 54.4799 28.3775 54.2124 27.7884C53.9593 27.2138 53.5909 26.6979 53.1304 26.273C52.6699 25.8481 52.1272 25.5234 51.5362 25.3191L48.5163 24.1832C48.2724 24.0851 48.051 23.9382 47.8653 23.7514C47.6796 23.5646 47.5335 23.3419 47.4359 23.0967L46.282 20.0348C46.0538 19.4373 45.7071 18.8927 45.2629 18.4342C44.8187 17.9758 44.2863 17.6131 43.6983 17.3682C43.1103 17.1233 42.4788 17.0014 41.8424 17.0098C41.206 17.0183 40.578 17.157 39.9965 17.4174L37.0503 18.7754C36.5619 18.9732 36.0164 18.9732 35.5281 18.7754L32.5817 17.4174C31.9991 17.1529 31.3688 17.0111 30.7297 17.0006C30.0905 16.9901 29.4559 17.1112 28.865 17.3563C28.274 17.6014 27.7392 17.9655 27.2932 18.4261C26.8473 18.8867 26.4996 19.4342 26.2717 20.0348L25.1423 23.0967C25.0448 23.3419 24.8987 23.5646 24.713 23.7514C24.5273 23.9382 24.3058 24.0851 24.062 24.1832L21.0175 25.3191C20.4203 25.5484 19.876 25.8979 19.418 26.3464C18.96 26.7949 18.598 27.3329 18.3543 27.9272C18.1105 28.5216 17.9902 29.1596 18.0006 29.8024C18.0111 30.4452 18.1521 31.0792 18.415 31.6652L19.7653 34.6283C19.962 35.1194 19.962 35.6681 19.7653 36.1592L18.415 39.1224C18.1543 39.709 18.0195 40.3443 18.0195 40.9867C18.0195 41.6292 18.1543 42.2645 18.415 42.8511C18.6603 43.4265 19.0231 43.9437 19.4799 44.3691C19.9367 44.7945 20.4773 45.1185 21.0666 45.3204L24.1111 46.481C24.3549 46.5791 24.5764 46.7259 24.7621 46.9127C24.9478 47.0994 25.0939 47.3223 25.1914 47.5675L26.3209 50.6047C26.6575 51.4987 27.2549 52.2694 28.0349 52.8158C28.8148 53.3623 29.7407 53.6589 30.6912 53.6666C31.3604 53.6697 32.0222 53.5266 32.6308 53.2469L35.5771 51.8888C35.8164 51.7793 36.0754 51.7204 36.3382 51.7159C36.6036 51.7226 36.8639 51.7901 37.0994 51.9134L40.0457 53.2222C40.6272 53.4906 41.2596 53.6295 41.8994 53.6295C42.5393 53.6295 43.1715 53.4906 43.7531 53.2222C44.3472 52.9817 44.884 52.6175 45.3283 52.1536C45.7726 51.6897 46.1144 51.1366 46.3311 50.5306L47.4851 47.4934C47.5826 47.2482 47.7287 47.0254 47.9144 46.8387C48.1001 46.6519 48.3216 46.505 48.5654 46.4069L51.5853 45.2464C52.1763 45.0421 52.719 44.7172 53.1795 44.2924C53.64 43.8675 54.0083 43.3517 54.2615 42.7771C54.5284 42.1922 54.6667 41.5563 54.6667 40.9128C54.6667 40.2692 54.5284 39.6333 54.2615 39.0484L52.9112 36.0358ZM27.7132 28C27.3193 28 27 28.3193 27 28.7132V39.7257C27 40.1196 27.0777 40.2603 27.4715 40.2603H29.1691C28.8031 40.7203 28.5844 41.3027 28.5844 41.9362C28.5844 43.4239 29.7905 44.63 31.2783 44.63C32.7661 44.63 33.9721 43.4239 33.9721 41.9362C33.9721 41.3027 33.7535 40.7203 33.3875 40.2603H39.4683C39.1024 40.7203 38.8837 41.3027 38.8837 41.9362C38.8837 43.4239 40.0898 44.63 41.5776 44.63C43.0653 44.63 44.2714 43.4239 44.2714 41.9362C44.2714 41.3027 44.0527 40.7203 43.6868 40.2603H45.2961C45.8691 40.2603 46.3335 39.7958 46.3335 39.2229V35.1123C46.3335 34.8372 46.2242 34.5733 46.0297 34.3787L43.2556 31.6047C43.0611 31.4101 42.7972 31.3008 42.5221 31.3008H40.3102V28.7132C40.3102 28.3193 39.9908 28 39.5969 28H27.7132ZM38.3172 29.8862V38.3741H28.8862V29.8862H38.3172ZM44.4473 38.3741H40.3102V33.187H42.1705L44.4473 35.4639V38.3741ZM30.0109 41.9362C30.0109 41.2362 30.5783 40.6688 31.2783 40.6688C31.9783 40.6688 32.5457 41.2362 32.5457 41.9362C32.5457 42.6361 31.9783 43.2036 31.2783 43.2036C30.5783 43.2036 30.0109 42.6361 30.0109 41.9362ZM41.5776 40.6688C40.8776 40.6688 40.3102 41.2362 40.3102 41.9362C40.3102 42.6361 40.8776 43.2036 41.5776 43.2036C42.2775 43.2036 42.845 42.6361 42.845 41.9362C42.845 41.2362 42.2775 40.6688 41.5776 40.6688Z" fill="#EDAE3A"/>
</g>
<defs>
<clipPath id="clip0_1528_9">
<rect width="72" height="72" fill="white"/>
</clipPath>
</defs>
</svg>
