<svg xmlns="http://www.w3.org/2000/svg" version="1.1" xmlns:xlink="http://www.w3.org/1999/xlink" width="512" height="512" x="0" y="0" viewBox="0 0 68 68" style="enable-background:new 0 0 512 512" xml:space="preserve" class="">
	<g>
		<path fill="#ffab02" d="M63.545 31.817 34 48.977 4.455 31.817 34 6.889z" opacity="1" data-original="#ffab02" class="">
		</path>
		<path fill="#e9edf4" d="M58.405 4.775v48.486H9.595V14.245h9.457a2.753 2.753 0 0 0 2.753-2.753v-9.47h33.847a2.753 2.753 0 0 1 2.753 2.753z" opacity="1" data-original="#e9edf4" class="">
		</path>
		<path fill="#d2dbea" d="M21.805 2.022v9.47a2.753 2.753 0 0 1-2.753 2.753H9.595z" opacity="1" data-original="#d2dbea" class="">
		</path>
		<path fill="#ffc90d" d="M63.545 31.817v29.236a4.892 4.892 0 0 1-1.318 3.349 4.887 4.887 0 0 1-3.607 1.576H9.38a4.887 4.887 0 0 1-3.607-1.576 4.892 4.892 0 0 1-1.318-3.349V31.817L34 48.977z" opacity="1" data-original="#ffc90d">
		</path>
		<path fill="#ffab02" d="M62.227 64.402a4.887 4.887 0 0 1-3.607 1.576H9.38a4.887 4.887 0 0 1-3.607-1.576l24.92-22.582a4.924 4.924 0 0 1 6.613 0z" opacity="1" data-original="#ffab02" class="">
		</path>
		<g fill="#f14f4a">
			<path d="M17.806 28.88c-.127-.054-.233-.141-.318-.263s-.127-.251-.127-.389c0-.18.061-.335.183-.468a.61.61 0 0 1 .469-.198c.105 0 .206.021.302.063a7.59 7.59 0 0 0 3.127.651c1.852 0 2.778-.608 2.778-1.826 0-.317-.12-.582-.358-.794-.238-.211-.53-.378-.88-.5s-.847-.267-1.493-.436c-.857-.222-1.55-.437-2.08-.643s-.984-.516-1.365-.929-.571-.963-.571-1.65c0-.604.158-1.152.476-1.644.318-.492.786-.884 1.405-1.175.619-.291 1.363-.437 2.23-.437 1.165 0 2.218.175 3.16.524.296.106.445.318.445.636 0 .169-.059.322-.175.46s-.27.206-.461.206a.731.731 0 0 1-.254-.063 7.762 7.762 0 0 0-2.556-.43c-.836 0-1.516.16-2.04.477-.523.318-.786.762-.786 1.334 0 .38.125.69.373.929.25.238.562.423.937.555.376.133.886.273 1.532.421.836.201 1.51.403 2.024.603.514.201.952.514 1.318.937.365.424.548.995.548 1.715 0 .592-.17 1.124-.508 1.595-.34.471-.816.84-1.429 1.103-.614.265-1.323.397-2.128.397a9.413 9.413 0 0 1-3.778-.762z" fill="#f14f4a" opacity="1" data-original="#f14f4a" class="">
			</path>
			<path d="M21.584 29.941a9.753 9.753 0 0 1-3.896-.786 1.028 1.028 0 0 1-.446-.366.964.964 0 0 1-.18-.56c0-.257.088-.483.261-.672.273-.296.727-.374 1.112-.207a7.33 7.33 0 0 0 3.007.626c2.478 0 2.478-1.148 2.478-1.526a.717.717 0 0 0-.257-.57 2.305 2.305 0 0 0-.78-.44 21.264 21.264 0 0 0-1.47-.43c-.864-.224-1.575-.444-2.113-.654a3.942 3.942 0 0 1-1.477-1.004c-.431-.468-.65-1.092-.65-1.855 0-.66.177-1.268.524-1.806.347-.537.86-.97 1.529-1.284.657-.308 1.45-.464 2.358-.464 1.194 0 2.293.182 3.265.542.41.148.64.473.64.917a.99.99 0 0 1-.246.653.874.874 0 0 1-.69.313.997.997 0 0 1-.365-.085 7.473 7.473 0 0 0-2.445-.407c-.777 0-1.41.146-1.884.433-.432.262-.642.614-.642 1.077 0 .298.092.53.281.712.216.207.495.372.828.49.363.127.868.265 1.5.41.847.205 1.541.412 2.067.617.555.218 1.038.56 1.434 1.02.412.478.621 1.12.621 1.91 0 .655-.19 1.251-.564 1.772-.37.513-.893.918-1.553 1.203-.65.28-1.405.421-2.247.421zm-3.571-2.08a.31.31 0 0 0-.248.103.373.373 0 0 0-.03.482.422.422 0 0 0 .186.156l.004.002c1.13.489 2.362.738 3.66.738.759 0 1.435-.126 2.008-.373.56-.241.999-.579 1.305-1.003.303-.422.45-.887.45-1.42 0-.642-.16-1.154-.475-1.52a3.034 3.034 0 0 0-1.199-.852c-.499-.196-1.168-.394-1.985-.591a15.304 15.304 0 0 1-1.562-.43 2.879 2.879 0 0 1-1.044-.622c-.31-.296-.466-.682-.466-1.145 0-.68.313-1.216.931-1.59.568-.345 1.307-.52 2.195-.52.908 0 1.801.15 2.654.445a.543.543 0 0 0 .156.047c.103 0 .173-.03.231-.1a.397.397 0 0 0 .105-.266c0-.19-.07-.29-.246-.353-.908-.336-1.936-.507-3.059-.507-.82 0-1.526.138-2.102.408-.565.266-.996.625-1.28 1.066-.289.447-.43.93-.43 1.481 0 .616.162 1.09.493 1.448.347.377.77.664 1.254.853.515.2 1.204.413 2.046.631.649.17 1.159.32 1.515.444a2.9 2.9 0 0 1 .982.559c.303.27.458.613.458 1.018 0 .97-.535 2.126-3.078 2.126a7.92 7.92 0 0 1-3.25-.677.44.44 0 0 0-.18-.037zM28.077 29.356a.69.69 0 0 1-.206-.509V19.37c0-.286.1-.532.302-.738a.981.981 0 0 1 .73-.31h.524a.96.96 0 0 1 .579.19c.175.127.305.286.39.477l3.603 8.985 3.604-8.985c.085-.19.215-.35.39-.477s.367-.19.578-.19h.525a.98.98 0 0 1 .73.31c.2.206.301.452.301.738v9.477a.69.69 0 0 1-.206.509.693.693 0 0 1-.508.206.721.721 0 0 1-.516-.206.679.679 0 0 1-.214-.509V19.83l-3.667 9.065c-.085.201-.22.363-.406.485a1.091 1.091 0 0 1-.61.182c-.223 0-.427-.06-.612-.182s-.32-.284-.404-.485l-3.668-9.065v9.017c0 .202-.072.371-.214.509-.143.137-.316.206-.517.206s-.37-.07-.508-.206z" fill="#f14f4a" opacity="1" data-original="#f14f4a" class="">
			</path>
			<path d="M39.413 29.862c-.28 0-.522-.097-.723-.29a.984.984 0 0 1-.307-.725v-7.475l-3.089 7.636c-.11.26-.283.467-.518.622a1.418 1.418 0 0 1-1.552 0 1.342 1.342 0 0 1-.517-.619l-3.092-7.64v7.476c0 .281-.105.532-.305.725a1.045 1.045 0 0 1-1.445-.004.982.982 0 0 1-.294-.72V19.37c0-.366.13-.685.387-.948.259-.266.577-.4.945-.4h.524c.276 0 .53.084.756.248.217.157.38.358.487.596L34 27.168l3.324-8.291c.11-.249.275-.45.492-.607.226-.165.48-.248.755-.248h.525c.368 0 .685.134.944.4.257.263.387.582.387.948v9.477a.982.982 0 0 1-.294.72.998.998 0 0 1-.72.295zm-.73-10.332a.3.3 0 0 1 .3.3v9.017c0 .121.038.211.122.293.172.163.44.167.604.003a.394.394 0 0 0 .118-.296V19.37c0-.207-.071-.38-.217-.529s-.308-.22-.514-.22h-.525a.665.665 0 0 0-.402.134.868.868 0 0 0-.292.356l-3.6 8.975c-.091.228-.464.228-.556 0L30.117 19.1a.866.866 0 0 0-.288-.345.657.657 0 0 0-.402-.133h-.524c-.206 0-.37.07-.515.219s-.217.322-.217.529v9.477c0 .122.038.216.118.297a.433.433 0 0 0 .605-.005.377.377 0 0 0 .122-.292V19.83a.3.3 0 0 1 .578-.112l3.668 9.065a.81.81 0 0 0 1.478-.004l3.664-9.061a.3.3 0 0 1 .279-.188zM42.921 28.88c-.127-.054-.232-.141-.317-.263s-.127-.251-.127-.389c0-.18.06-.335.182-.468a.61.61 0 0 1 .47-.198c.105 0 .205.021.3.063a7.59 7.59 0 0 0 3.128.651c1.852 0 2.778-.608 2.778-1.826 0-.317-.119-.582-.357-.794-.239-.211-.532-.378-.881-.5s-.847-.267-1.492-.436c-.858-.222-1.551-.437-2.08-.643s-.985-.516-1.366-.929-.571-.963-.571-1.65c0-.604.158-1.152.477-1.644.317-.492.785-.884 1.404-1.175.619-.291 1.363-.437 2.23-.437 1.165 0 2.218.175 3.16.524.296.106.445.318.445.636 0 .169-.059.322-.175.46s-.27.206-.46.206a.731.731 0 0 1-.255-.063 7.762 7.762 0 0 0-2.555-.43c-.836 0-1.517.16-2.04.477-.524.318-.787.762-.787 1.334 0 .38.125.69.373.929.25.238.562.423.937.555.376.133.887.273 1.532.421.836.201 1.51.403 2.025.603.513.201.952.514 1.317.937.365.424.548.995.548 1.715 0 .592-.17 1.124-.508 1.595-.339.471-.815.84-1.429 1.103-.614.265-1.323.397-2.128.397a9.413 9.413 0 0 1-3.778-.762z" fill="#f14f4a" opacity="1" data-original="#f14f4a" class="">
			</path>
			<path d="M46.7 29.941a9.753 9.753 0 0 1-3.897-.786 1.028 1.028 0 0 1-.445-.366.964.964 0 0 1-.181-.56c0-.257.088-.483.262-.672.273-.296.727-.374 1.11-.207a7.33 7.33 0 0 0 3.008.626c2.478 0 2.478-1.148 2.478-1.526a.717.717 0 0 0-.257-.57 2.305 2.305 0 0 0-.78-.44 21.264 21.264 0 0 0-1.47-.43c-.864-.224-1.575-.444-2.113-.654a3.942 3.942 0 0 1-1.476-1.004c-.432-.468-.65-1.092-.65-1.855 0-.66.176-1.268.524-1.806.346-.537.86-.97 1.528-1.284.657-.308 1.45-.464 2.358-.464 1.195 0 2.293.182 3.265.542.411.148.64.473.64.917a.99.99 0 0 1-.245.653.874.874 0 0 1-.69.313.997.997 0 0 1-.366-.085 7.473 7.473 0 0 0-2.444-.407c-.778 0-1.412.146-1.885.433-.432.262-.642.614-.642 1.077 0 .298.092.53.281.712.216.207.496.372.829.49.362.127.867.265 1.5.41.846.205 1.54.412 2.066.617.556.218 1.038.56 1.435 1.02.412.478.62 1.12.62 1.91 0 .655-.189 1.251-.564 1.772-.369.513-.892.918-1.553 1.203-.649.28-1.405.421-2.247.421zm-3.572-2.08a.31.31 0 0 0-.248.103.373.373 0 0 0-.03.482.422.422 0 0 0 .186.156l.004.002c1.131.489 2.362.738 3.66.738.76 0 1.435-.126 2.008-.373.56-.241 1-.579 1.305-1.003.304-.422.451-.887.451-1.42 0-.642-.16-1.154-.476-1.52a3.034 3.034 0 0 0-1.199-.852c-.499-.196-1.168-.394-1.985-.591a15.304 15.304 0 0 1-1.562-.43 2.879 2.879 0 0 1-1.044-.622c-.31-.296-.465-.682-.465-1.145 0-.68.312-1.216.93-1.59.569-.345 1.307-.52 2.196-.52.907 0 1.8.15 2.653.445a.543.543 0 0 0 .156.047c.104 0 .173-.03.232-.1a.397.397 0 0 0 .104-.266c0-.19-.07-.29-.246-.353-.907-.336-1.936-.507-3.059-.507-.819 0-1.526.138-2.102.408-.565.266-.995.625-1.28 1.066-.289.447-.43.93-.43 1.481 0 .616.162 1.09.493 1.448.348.377.77.664 1.254.853.516.2 1.204.413 2.046.631.65.17 1.159.32 1.515.444a2.9 2.9 0 0 1 .982.559c.304.27.458.613.458 1.018 0 .97-.534 2.126-3.078 2.126a7.92 7.92 0 0 1-3.25-.677.44.44 0 0 0-.179-.037z" fill="#f14f4a" opacity="1" data-original="#f14f4a" class="">
			</path>
		</g>
	</g>
</svg>
