<svg xmlns="http://www.w3.org/2000/svg" version="1.1" xmlns:xlink="http://www.w3.org/1999/xlink" xmlns:svgjs="http://svgjs.com/svgjs" width="512" height="512" x="0" y="0" viewBox="0 0 512 512" style="enable-background:new 0 0 512 512" xml:space="preserve"><g><g data-name="30.Category"><path fill="#3aa1d9" d="M13.5 504.472a5 5 0 0 1-3.532-8.539l84.375-84.209a5 5 0 1 1 7.064 7.078l-84.375 84.209a4.985 4.985 0 0 1-3.532 1.461z" data-original="#3aa1d9"></path><ellipse cx="165.245" cy="347.307" fill="#a1daf9" rx="95.625" ry="95.023" data-original="#a1daf9"></ellipse><path fill="#f8b117" d="M258.882 7.528h1.988v200.124H59.629v-.871A199.253 199.253 0 0 1 258.882 7.528z" data-original="#f8b117"></path><path fill="#fb530a" d="M503.5 206.781v.871H302.26V7.528h1.988A199.253 199.253 0 0 1 503.5 206.781z" data-original="#fb530a"></path><path fill="#f8830e" d="M302.26 252.284H503.5v.871a199.253 199.253 0 0 1-199.253 199.253h-1.987V252.284z" data-original="#f8830e"></path></g></g></svg>