<svg width="512" height="355" viewBox="0 0 512 355" fill="none" xmlns="http://www.w3.org/2000/svg">
<path d="M503.726 201.277C491.151 180.098 473.386 162.472 452.108 150.063C430.206 137.313 405.167 130.57 379.694 130.57C354.222 130.57 329.183 137.313 307.28 150.063C286.004 162.473 268.24 180.099 255.663 201.277C244.792 219.621 244.628 241.676 255.229 260.281C265.937 279.082 285.222 290.301 306.812 290.301H452.577C474.171 290.301 493.452 279.078 504.163 260.281C514.761 241.676 514.597 219.621 503.726 201.277Z" fill="#19CFFC"/>
<path d="M452.111 150.047C430.213 137.293 405.17 130.551 379.697 130.551H379.693V290.285H452.58C474.174 290.285 493.455 279.063 504.162 260.265C514.764 241.66 514.6 219.602 503.728 201.262C491.155 180.081 473.39 162.454 452.111 150.047Z" fill="#4AB8F7"/>
<path d="M436.916 23.7035C421.631 8.41849 401.311 0.000488281 379.693 0.000488281C358.076 0.000488281 337.756 8.41849 322.475 23.7035C307.189 38.9885 298.771 59.3095 298.771 80.9225C298.771 102.539 307.189 122.859 322.475 138.145C337.755 153.43 358.076 161.848 379.693 161.848C401.311 161.848 421.631 153.43 436.916 138.145C452.201 122.859 460.619 102.539 460.619 80.9225C460.619 59.3095 452.201 38.9885 436.916 23.7035Z" fill="#FFD2BF"/>
<path d="M436.92 23.6845C421.143 7.90651 400.42 0.0205078 379.693 0.0205078V161.79H379.697C400.42 161.79 421.143 153.903 436.92 138.126C468.47 106.576 468.47 55.2355 436.92 23.6845Z" fill="#FFB89C"/>
<path d="M256.331 201.277C243.756 180.098 225.992 162.472 204.714 150.063C182.815 137.313 157.772 130.57 132.3 130.57C106.827 130.57 81.7884 137.313 59.8864 150.063C38.6101 162.473 20.8459 180.098 8.26936 201.276C-2.60264 219.616 -2.76664 241.675 7.83536 260.28C18.5424 279.077 37.8274 290.3 59.4174 290.3H205.187C226.777 290.3 246.057 279.081 256.769 260.28C267.366 241.679 267.202 219.621 256.331 201.277Z" fill="#27488F"/>
<path d="M204.719 150.047C182.82 137.293 157.777 130.551 132.305 130.551H132.301V290.285H205.188C226.781 290.285 246.063 279.063 256.77 260.265C267.371 241.66 267.207 219.602 256.336 201.262C243.763 180.081 225.998 162.454 204.719 150.047Z" fill="#12254C"/>
<path d="M189.523 23.7035C174.238 8.41849 153.918 0.000488281 132.301 0.000488281C110.688 0.000488281 90.3629 8.41849 75.0819 23.7035C59.7969 38.9885 51.3789 59.3105 51.3789 80.9225C51.3789 102.539 59.7969 122.859 75.0819 138.145C90.3629 153.43 110.688 161.848 132.301 161.848C153.918 161.848 174.238 153.43 189.523 138.145C204.809 122.859 213.227 102.539 213.227 80.9225C213.227 59.3095 204.809 38.9885 189.523 23.7035Z" fill="#FFD2BF"/>
<path d="M189.527 23.6845C173.75 7.90651 153.027 0.0205078 132.301 0.0205078V161.79H132.305C153.027 161.79 173.75 153.903 189.527 138.126C221.078 106.576 221.078 55.2355 189.527 23.6845Z" fill="#FFB89C"/>
<path d="M380.026 265.508C367.454 244.327 349.691 226.7 328.413 214.293C306.511 201.539 281.472 194.801 255.999 194.801C230.526 194.801 205.483 201.539 183.585 214.293C162.306 226.7 144.541 244.327 131.968 265.508C121.097 283.848 120.933 305.906 131.534 324.512C142.241 343.309 161.522 354.532 183.116 354.532H328.882C350.472 354.532 369.757 343.309 380.464 324.512C391.062 305.906 390.901 283.848 380.026 265.508Z" fill="#FE6A16"/>
<path d="M328.412 214.293C306.51 201.539 281.471 194.797 255.998 194.797H255.994V354.53H328.881C350.471 354.53 369.756 343.308 380.463 324.51C391.06 305.905 390.9 283.847 380.025 265.507C367.454 244.326 349.69 226.7 328.412 214.293Z" fill="#FF432E"/>
<path d="M313.222 87.9303C281.667 56.3793 230.331 56.3793 198.776 87.9303C167.226 119.48 167.226 170.82 198.776 202.371C214.554 218.148 235.276 226.035 255.999 226.035C276.722 226.035 297.444 218.148 313.222 202.371C344.772 170.821 344.772 119.481 313.222 87.9303Z" fill="#FFD2BF"/>
<path d="M313.221 87.9306C297.443 72.1526 276.717 64.2666 255.994 64.2666V226.037H255.998C276.721 226.037 297.443 218.149 313.221 202.372C344.771 170.822 344.771 119.482 313.221 87.9306Z" fill="#FFB89C"/>
</svg>
